<?xml version="1.0" encoding="UTF-8"?>
<svg id="Layer_1" data-name="Layer 1" xmlns="http://www.w3.org/2000/svg" xmlns:xlink="http://www.w3.org/1999/xlink" viewBox="0 0 5739.62 3280.53">
  <defs>
    <style>
      .cls-1 {
        mask: url(#mask);
      }

      .cls-2 {
        mask: url(#mask-1);
      }

      .cls-3 {
        fill: #e31f28;
      }

      .cls-4 {
        fill: #fff;
      }
    </style>
    <mask id="mask" x="-.36" y="-159.68" width="5739.98" height="3600" maskUnits="userSpaceOnUse">
      <g id="mask0_656_2" data-name="mask0 656 2">
        <path class="cls-4" d="M5739.38-159.68H-.36v3600h5739.74V-159.68Z"/>
      </g>
    </mask>
    <mask id="mask-1" x="-.36" y="-159.68" width="5739.98" height="3600" maskUnits="userSpaceOnUse">
      <g id="mask1_656_2" data-name="mask1 656 2">
        <path class="cls-4" d="M5739.38-159.68H-.36v3600h5739.74V-159.68Z"/>
      </g>
    </mask>
  </defs>
  <g class="cls-1">
    <g class="cls-2">
      <g>
        <path class="cls-4" d="M1728.85,32.71C794.59,32.71,34.35,753.9,34.35,1640.22s760.12,1607.73,1694.5,1607.73h2282.04c934.26,0,1694.26-721.2,1694.26-1607.73S4945.27,32.71,4011.01,32.71H1728.85Z"/>
        <path class="cls-4" d="M4011.01,3280.53H1728.97C775.51,3280.53,0,2544.73,0,1640.22S775.51,0,1728.85,0h2282.04c953.22,0,1728.73,735.8,1728.73,1640.22s-775.51,1640.32-1728.73,1640.32M1728.85,32.71C794.59,32.71,34.35,753.9,34.35,1640.22s760.12,1607.73,1694.5,1607.73h2282.04c934.26,0,1694.26-721.2,1694.26-1607.73S4945.27,32.71,4011.01,32.71H1728.85Z"/>
        <path class="cls-3" d="M4409.85,1542.1l758.82,856.32c157.2-215.46,249.51-476.76,249.51-758.09,0-296.94-102.81-571.6-276.35-793.63l-731.98,695.52v-.12Z"/>
        <path class="cls-3" d="M2259.49,774.39c566.67,0,993.66,136.82,1037.67,589.82l596.36-589.93h1187.6c-258.35-286.87-642.28-469.18-1070.23-469.18H1728.85c-428.07,0-812.12,182.2-1070.47,469.18h1600.99l.12.11Z"/>
        <path class="cls-3" d="M1325.83,1345.41l-202.41,527.92h816.54c241.41,0,314.4-94.84,368.43-277.37,53.44-180.5-80.86-250.55-245.82-250.55h-736.74Z"/>
        <path class="cls-3" d="M3898.53,2470.39l-630.83-756.28c-116.65,515.7-498.44,756.28-1214.19,756.28H627.25c257.99,307.59,656,505.28,1101.6,505.28h2282.04c445.6,0,843.37-197.47,1101.36-505.16h-1213.84l.12-.12Z"/>
      </g>
    </g>
  </g>
</svg>