<svg width="26" height="26" viewBox="0 0 26 26" fill="none" xmlns="http://www.w3.org/2000/svg">
<path d="M23.3333 0H2.33333C1.04417 0 0 1.04417 0 2.33333V23.3333C0 24.6225 1.04417 25.6667 2.33333 25.6667H14V15.1667H10.5V11.6667H14V9.78717C14 6.22883 15.7337 4.66667 18.6912 4.66667C20.1075 4.66667 20.8565 4.77167 21.2112 4.8195V8.16667H19.194C17.9387 8.16667 17.5 8.82933 17.5 10.171V11.6667H21.1797L20.6803 15.1667H17.5V25.6667H23.3333C24.6225 25.6667 25.6667 24.6225 25.6667 23.3333V2.33333C25.6667 1.04417 24.6213 0 23.3333 0Z" fill="black"/>
</svg>
