<svg width="112" height="86" viewBox="0 0 112 86" fill="none" xmlns="http://www.w3.org/2000/svg">
<g filter="url(#filter0_g_721_89)">
<path d="M38.9511 4.6462C41.159 3.49422 42.394 3.90981 49.7835 4.34727C54.8202 4.6462 59.8638 4.63891 64.9005 4.8066C71.945 5.03992 67.9709 4.86493 77.9891 5.18574C80.4661 5.26594 82.8257 5.34614 86.1237 5.30968C89.1458 5.28052 91.8711 5.17115 92.7543 5.1347C100.102 4.82848 101.503 4.39831 103.58 5.61591C104.083 5.91484 105.912 7.01578 107.023 9.34161C107.306 9.93219 108.071 11.7112 107.864 13.9495C107.768 15.014 107.485 15.7723 107.326 16.2097C106.45 18.6741 106.643 19.1262 105.491 23.632C104.691 26.7453 104.035 28.7211 101.351 37.5068C98.8742 45.629 97.6254 49.7192 97.4115 51.0389C97.0596 53.1825 96.3214 55.2458 95.8936 57.3748C95.7073 58.308 95.452 59.183 94.8586 60.2037C94.0928 61.5234 93.182 62.2598 92.1816 63.0545C90.4843 64.396 88.9319 65.0741 87.6071 65.6428C86.4342 66.1459 85.4407 66.4594 84.385 66.8021C82.8119 67.3052 82.6049 67.2833 81.1629 67.7572C79.6933 68.2384 79.4932 68.3915 77.6303 69.0696C76.1331 69.6091 76.1607 69.5508 73.6699 70.3893C71.4897 71.1256 70.3995 71.4902 68.992 72.0443C67.9778 72.4453 67.8191 72.5401 64.9833 73.7723C61.9958 75.0701 62.3339 74.8951 60.2709 75.7992C56.6072 77.4032 56.1588 77.6803 54.2338 78.4167C53.0746 78.8614 53.53 78.6427 50.7357 79.6415C46.4717 81.1581 45.6576 81.581 43.9257 81.7705C42.9391 81.8799 41.8421 81.9965 40.4345 81.7705C39.6963 81.6539 37.4125 81.2091 33.942 78.4604C32.7001 77.4761 32.4724 77.1189 28.5672 72.9849C27.4702 71.8256 25.559 69.806 23.5236 67.7207C21.9574 66.1167 20.6327 64.8116 17.997 62.2014C13.0224 57.2873 12.9948 57.0904 11.677 55.9749C11.4907 55.8145 9.9659 54.524 7.99261 52.745C6.27461 51.192 5.26036 50.215 4.6256 48.5891C4.27372 47.6923 4.13573 46.8466 4.08053 46.4674C3.92874 45.4759 3.76315 44.4041 4.08053 43.274C4.28752 42.5376 4.6256 42.0564 5.66054 40.8169C7.01976 39.191 7.70282 38.3817 8.45488 37.6672C11.0629 35.2101 13.3329 32.3812 15.8099 29.771C19.8047 25.5568 22.3921 22.8227 25.5935 19.3011C28.6224 15.9837 30.1334 14.3214 31.4237 12.8194C36.626 6.77518 36.8882 5.71798 38.9373 4.63891L38.9511 4.6462Z" stroke="#369331" stroke-width="5" stroke-miterlimit="10"/>
<path d="M80.1212 19.2338C80.0796 19.2561 80.0103 19.2858 79.9341 19.3155C79.9341 19.3155 79.4005 19.5681 78.9223 19.9098C78.5897 20.1476 77.765 20.8162 77.0443 21.9231C76.6909 22.4729 76.1781 23.2752 75.9702 24.4119C75.8593 25.0211 75.8939 25.5857 75.9702 26.7149C76.0395 27.7252 76.0672 28.2304 76.2404 28.7653C76.6354 29.9986 77.377 30.7638 77.5502 30.9421C78.2917 31.685 79.0679 32.0267 79.6292 32.2644C80.8974 32.8068 81.9992 32.8811 82.4497 32.8959C83.8565 32.9405 84.9029 32.5987 85.1385 32.517C85.4296 32.413 86.5938 31.997 87.6957 30.9421C87.8759 30.7712 88.6867 29.9763 89.2688 28.6762C89.3866 28.4162 89.8994 27.2275 89.8994 25.5634C89.8994 24.6199 89.8994 23.3495 89.0678 22.0271C88.2432 20.7122 87.0512 20.0658 86.5176 19.791C86.3028 19.6795 85.4642 19.2561 84.2653 19.0332C84.0852 18.996 83.2605 18.8549 82.1656 18.9143C81.334 18.9589 80.641 19.1 80.1282 19.2412L80.1212 19.2338Z" stroke="#369331" stroke-width="4" stroke-miterlimit="10"/>
</g>
<defs>
<filter id="filter0_g_721_89" x="0.000390649" y="-9.76324e-05" width="111.799" height="85.7998" filterUnits="userSpaceOnUse" color-interpolation-filters="sRGB">
<feFlood flood-opacity="0" result="BackgroundImageFix"/>
<feBlend mode="normal" in="SourceGraphic" in2="BackgroundImageFix" result="shape"/>
<feTurbulence type="fractalNoise" baseFrequency="0.47619050741195679 0.47619050741195679" numOctaves="3" seed="9099" />
<feDisplacementMap in="shape" scale="2.7999999523162842" xChannelSelector="R" yChannelSelector="G" result="displacedImage" width="100%" height="100%" />
<feMerge result="effect1_texture_721_89">
<feMergeNode in="displacedImage"/>
</feMerge>
</filter>
</defs>
</svg>
