<svg width="75" height="82" viewBox="0 0 75 82" fill="none" xmlns="http://www.w3.org/2000/svg">
<g filter="url(#filter0_g_721_87)">
<path d="M8.73413 65.9558C8.66313 66.1089 8.61149 66.2301 8.57276 66.3258C8.19194 67.2123 7.86921 67.9585 7.48839 68.8896C6.88166 70.3948 6.24266 72.0147 5.57784 74.0875C5.11311 75.5225 4.77101 76.9894 4.3321 78.4371C4.29337 78.571 4.17074 78.9665 4.3321 79.381C4.52574 79.8721 5.00338 80.0826 5.07438 80.1081C5.56493 80.3122 6.00384 80.1655 6.17811 80.1081C6.24911 80.0826 6.55248 79.9805 6.81066 79.7446C7.28185 79.3109 7.23021 78.7624 7.39157 77.6845C7.48194 77.0787 7.63685 76.4919 7.94021 75.3184C8.08867 74.7571 8.20485 74.3554 8.40495 73.6793C8.75995 72.4867 8.93422 71.8872 9.1214 71.3706C9.5345 70.2226 9.70232 70.1971 10.8577 67.8373C11.0449 67.4482 11.3547 66.7977 11.9614 65.4966C12.0066 65.401 12.026 65.3563 12.0324 65.35C12.5359 64.2721 13.0006 63.2899 13.3814 62.5884C13.7364 61.9379 13.7042 62.1228 14.6982 60.5603C14.9822 60.1202 15.2274 59.7184 16.0149 58.4301C18.0287 55.12 17.848 55.3433 18.2224 54.7884C19.2099 53.3215 19.2874 53.4682 20.3782 51.8227C20.7913 51.2041 21.0947 50.7066 21.8498 49.5841C22.1016 49.2142 22.4566 48.6849 22.8503 48.13C23.257 47.5496 23.8508 46.7333 25.2191 45.0113C26.4068 43.5125 27.0006 42.7663 27.5363 42.154C28.5626 40.9805 29.3565 40.1961 30.854 38.7228C32.061 37.5302 32.9711 36.6755 33.9587 35.7572C35.5013 34.3158 36.6179 33.2826 38.167 31.9624C39.5161 30.8144 40.2002 30.234 41.2717 29.4687C42.9434 28.276 43.7761 27.6765 44.4925 27.3513C45.6156 26.8474 46.487 26.6752 46.9517 25.827C47.2551 25.2785 47.268 24.6662 47.268 24.4749C47.268 24.0284 47.2745 23.4417 46.9001 23.1738C46.6096 22.9697 46.2353 23.0463 45.6866 23.1738C44.7895 23.3779 44.1634 23.7351 44.0536 23.7989C42.9757 24.4239 42.2399 25.0298 41.5815 25.5655C40.3745 26.5413 40.9361 26.0374 39.316 27.3321C38.451 28.0273 37.0569 29.1562 35.2625 30.7123C34.2104 31.6307 32.9582 32.7213 31.3704 34.2456C29.3824 36.159 27.9107 37.747 27.2136 38.5123C25.6645 40.2152 24.6447 41.4652 22.9536 43.5571C20.8365 46.1657 19.7779 47.4731 18.7452 48.9655C17.99 50.0561 18.2676 49.7436 15.0015 55.069C14.7756 55.4325 13.4331 57.6329 11.7871 60.3562C11.7871 60.3562 11.3741 61.0386 9.58613 64.2466C9.42477 64.5336 9.09559 65.1331 8.72122 65.9622L8.73413 65.9558Z" fill="#369331"/>
<path d="M11.1995 68.4051C11.7546 68.7942 12.2387 69.0429 13.2843 69.5149C15.466 70.5034 16.5568 71.0009 17.5895 71.3134C19.7195 71.9575 21.3848 71.8427 24.483 71.6323C27.2133 71.4473 29.5434 71.0009 31.3507 70.5481C33.1838 70.0889 35.9722 69.3809 39.2963 67.6462C40.045 67.2571 42.7818 65.7902 45.8283 63.1307C47.4162 61.7467 49.2493 60.1396 50.9468 57.5374C52.2636 55.5093 52.838 53.8894 53.8837 50.8727C54.3226 49.6099 55.1165 47.1927 56.4978 41.0892C57.9307 34.7433 57.5951 35.0494 58.46 31.9499C58.8537 30.5468 58.8343 30.7955 61.8357 22.3768C64.1142 15.9927 64.2433 15.5016 64.992 14.2006C65.5277 13.2694 67.0575 10.7311 68.3678 8.39042C69.5167 6.3304 68.9745 7.14038 69.6716 5.91585C70.4332 4.58289 70.6656 4.34054 70.543 4.08543C70.2396 3.47954 68.3742 3.95787 64.8823 4.4107C62.5651 4.71045 62.7523 4.57652 60.6352 4.838C57.7048 5.20154 55.9233 5.62247 49.8625 6.98731C42.246 8.70293 41.9233 8.73482 40.1741 9.24504C38.3862 9.76801 36.0174 10.4696 32.9902 11.7196C29.7564 13.0589 27.4392 14.3409 25.7675 15.2656C22.5015 17.0833 20.4554 18.2249 17.9703 20.2148C14.1621 23.257 11.8514 26.2673 10.5669 27.9574C8.92101 30.1258 7.39127 32.1476 6.10681 35.2727C4.94498 38.0916 4.58353 40.3685 4.25434 42.4795C3.4217 47.8751 3.92516 52.0398 4.25434 54.6292C4.84816 59.253 5.77762 61.2684 6.10681 61.9445C7.01045 63.7876 8.069 65.127 8.73382 65.9561C9.96665 67.4931 10.7541 68.099 11.1995 68.4051Z" stroke="#369331" stroke-width="5" stroke-miterlimit="10"/>
</g>
<defs>
<filter id="filter0_g_721_87" x="-0.000195265" y="4.88758e-05" width="74.3744" height="81.5128" filterUnits="userSpaceOnUse" color-interpolation-filters="sRGB">
<feFlood flood-opacity="0" result="BackgroundImageFix"/>
<feBlend mode="normal" in="SourceGraphic" in2="BackgroundImageFix" result="shape"/>
<feTurbulence type="fractalNoise" baseFrequency="0.45454543828964233 0.45454543828964233" numOctaves="3" seed="4071" />
<feDisplacementMap in="shape" scale="2.5999999046325684" xChannelSelector="R" yChannelSelector="G" result="displacedImage" width="100%" height="100%" />
<feMerge result="effect1_texture_721_87">
<feMergeNode in="displacedImage"/>
</feMerge>
</filter>
</defs>
</svg>
