<svg width="116" height="69" viewBox="0 0 116 69" fill="none" xmlns="http://www.w3.org/2000/svg">
<mask id="mask0_721_85" style="mask-type:luminance" maskUnits="userSpaceOnUse" x="89" y="52" width="17" height="9">
<path d="M105.4 52.3999H89.4004V60.2497H105.4V52.3999Z" fill="white"/>
</mask>
<g mask="url(#mask0_721_85)">
<mask id="mask1_721_85" style="mask-type:luminance" maskUnits="userSpaceOnUse" x="89" y="52" width="17" height="9">
<path d="M105.4 52.3999H89.4004V60.2497H105.4V52.3999Z" fill="white"/>
</mask>
<g mask="url(#mask1_721_85)">
<path d="M94.2206 52.8179C91.6163 52.8179 89.4971 54.3904 89.4971 56.323C89.4971 58.2556 91.616 59.8287 94.2206 59.8287H100.582C103.186 59.8287 105.305 58.2561 105.305 56.323C105.305 54.39 103.187 52.8179 100.582 52.8179H94.221H94.2206Z" fill="white"/>
<path d="M100.582 59.9005H94.221C91.5632 59.9005 89.4014 58.2961 89.4014 56.3238C89.4014 54.3515 91.5632 52.7473 94.2207 52.7473H100.582C103.239 52.7473 105.401 54.3517 105.401 56.3238C105.401 58.2959 103.239 59.9005 100.582 59.9005M94.2207 52.8186C91.6164 52.8186 89.4971 54.3912 89.4971 56.3238C89.4971 58.2564 91.616 59.8295 94.2207 59.8295H100.582C103.186 59.8295 105.305 58.2569 105.305 56.3238C105.305 54.3907 103.187 52.8186 100.582 52.8186H94.221H94.2207Z" fill="#231F20"/>
<path d="M101.694 56.1096L103.81 57.9768C104.248 57.507 104.505 56.9372 104.505 56.3238C104.505 55.6763 104.219 55.0774 103.735 54.5933L101.694 56.1098V56.1096Z" fill="#E31F28"/>
<path d="M95.6996 54.4369C97.2792 54.4369 98.4695 54.7352 98.5921 55.723L100.255 54.4366H103.565C102.845 53.8111 101.775 53.4136 100.582 53.4136H94.2203C93.0271 53.4136 91.9565 53.8109 91.2363 54.4366H95.6992L95.6996 54.4369Z" fill="#E31F28"/>
<path d="M93.0974 55.6812L92.5332 56.8323H94.8094C95.4823 56.8323 95.6858 56.6255 95.8364 56.2275C95.9854 55.8339 95.611 55.6812 95.1512 55.6812H93.0974Z" fill="#E31F28"/>
<path d="M100.269 58.1349L98.5109 56.4858C98.1857 57.6103 97.1214 58.1349 95.1262 58.1349H91.1504C91.8695 58.8056 92.979 59.2367 94.2212 59.2367H100.583C101.825 59.2367 102.934 58.8061 103.653 58.1352H100.269L100.269 58.1349Z" fill="#E31F28"/>
</g>
</g>
<g filter="url(#filter0_g_721_85)">
<path d="M102.4 3.3999H13.4004C7.87754 3.3999 3.40039 7.87706 3.40039 13.3999V55.3999C3.40039 60.9228 7.87754 65.3999 13.4004 65.3999H102.4C107.923 65.3999 112.4 60.9227 112.4 55.3999V13.3999C112.4 7.87705 107.923 3.3999 102.4 3.3999Z" stroke="#369331" stroke-width="5"/>
</g>
<path d="M29.8129 23.5514C29.6175 23.3484 29.6205 23.1303 29.6347 22.9733C29.6742 22.5306 29.8129 22.2514 29.8129 22.2514C30.0811 21.7101 30.3706 21.1254 31.1035 20.5467C31.472 20.2563 31.7656 20.1144 31.9498 19.7669C32.0288 19.6172 32.048 19.5042 32.208 19.3465C32.2697 19.2854 32.3952 19.1764 32.9469 18.9313C33.6383 18.6252 33.8175 18.6298 33.9866 18.4386C34.102 18.3079 34.0372 18.2836 34.2062 18.0366C34.3672 17.8014 34.4482 17.6839 34.6263 17.5958C34.9827 17.4198 35.5759 17.4296 35.9251 17.5958C36.1448 17.7003 36.1023 17.7883 36.3452 17.8809C36.6742 18.0071 37.0528 17.9598 37.1642 17.946C37.5478 17.898 37.5772 17.7883 38.0833 17.6733C38.5085 17.5768 38.5105 17.6497 38.7626 17.5695C39.287 17.4033 39.2333 17.1031 39.702 16.9987C39.9652 16.9402 40.2294 16.979 40.361 16.9987C40.6272 17.0381 40.7345 17.1064 41.0808 17.18C41.1516 17.1951 41.2883 17.2214 41.6001 17.2575C41.9858 17.3022 42.5152 17.3639 43.1793 17.3744C44.2594 17.3909 44.8273 17.4001 45.4377 17.1931C45.8456 17.0545 46.122 16.8456 46.6767 16.4278C47.0898 16.1164 47.3347 15.8754 47.7761 15.4424C48.345 14.8828 48.6305 14.6036 48.7955 14.3014C48.8421 14.2166 48.9666 13.9756 49.1751 13.6399C49.2885 13.4566 49.3462 13.3653 49.415 13.2766C49.6033 13.0355 49.7784 12.9238 50.2147 12.6019C50.7867 12.1795 51.0732 11.9687 51.3141 11.7328C51.4153 11.6336 51.4983 11.5443 51.7939 11.2533C52.1735 10.8782 52.2272 10.8375 52.294 10.7994C52.6351 10.6023 53.0826 10.6043 53.5725 10.6049C55.999 10.6095 56.1913 10.5891 56.4302 10.5143C56.7775 10.4052 56.5952 10.3763 57.6288 9.68457C58.1248 9.35283 58.7312 8.98102 59.5674 8.65978C60.031 8.48176 60.5503 8.3241 60.9259 8.43906C60.9694 8.4522 61.1081 8.4949 61.1253 8.56847C61.1516 8.68277 60.8671 8.79511 60.6252 8.89299C59.8447 9.20897 59.454 9.36663 59.2465 9.50261C58.876 9.74501 58.7332 10.0163 58.6067 10.2548C58.5237 10.4118 58.3617 10.7304 58.4073 11.1495C58.4417 11.4655 58.4832 11.8511 58.8871 12.0311C59.1432 12.1454 59.3335 12.0836 59.6666 12.2518C59.8063 12.3221 60.028 12.4344 60.0664 12.6019C60.115 12.8154 59.8093 12.8713 59.6848 13.1984C59.623 13.3627 59.6939 13.362 59.6848 13.7956C59.6757 14.1877 59.618 14.1595 59.6372 14.3861C59.6423 14.4452 59.6524 14.5175 59.865 15.1429C59.9692 15.4503 59.9794 15.4694 60.0067 15.5738C60.1029 15.9332 60.1484 16.1164 60.035 16.2879C59.949 16.4186 59.866 16.4114 59.5795 16.6203C59.2373 16.8699 59.2444 16.9619 58.9539 17.2174C58.4862 17.6287 58.307 17.5308 58.0246 17.8389C57.7462 18.1424 57.7017 18.4748 57.6733 18.6883C57.6207 19.0851 57.7533 19.1678 57.5883 19.3465C57.5033 19.4385 57.482 19.401 56.7825 19.7709C56.6104 19.8622 56.5163 19.9141 56.3553 19.9371C56.1579 19.9647 55.9747 19.9325 55.7773 19.8753C55.3562 19.7551 55.0616 19.5823 54.8288 19.4326C54.3024 19.0929 54.2639 18.9786 53.776 18.7126C53.4723 18.5464 53.2749 18.4748 53.036 18.4662C52.787 18.457 52.4509 18.5155 52.4104 18.6265C52.3962 18.6659 52.4165 18.7172 52.4671 18.7375C52.5602 18.775 52.6766 18.6771 52.8366 18.664C53.0643 18.6456 53.2192 18.8118 53.6333 19.0883C54.026 19.3511 54.0139 19.2854 54.3155 19.5009C54.7539 19.8129 54.6962 19.8917 54.9978 20.0179C55.1436 20.079 55.4696 20.215 55.8138 20.1966C55.9221 20.1906 56.0466 20.1946 56.2976 20.2025C56.408 20.2058 56.4586 20.209 56.4971 20.2333C56.5861 20.2905 56.5234 20.412 56.4687 20.5349C56.4687 20.5349 56.3209 20.866 56.2409 21.2299C56.2106 21.3705 56.2075 21.4723 56.2035 21.6359C56.1944 21.9735 56.247 22.0635 56.166 22.2698C56.1276 22.3657 56.0972 22.3959 56.0618 22.5161C56.0243 22.6436 55.9919 22.7533 56.0334 22.8728C56.0648 22.9635 56.1002 22.951 56.3179 23.1928C56.4383 23.3268 56.5203 23.4187 56.6023 23.5514C56.6833 23.6835 56.6651 23.696 56.7349 23.7774C56.8584 23.9206 56.9506 23.9232 57.0002 24.0297C57.0093 24.0494 57.0781 24.2051 56.9334 24.3128C56.8119 24.4035 56.6206 24.3995 56.5922 24.3989C56.5558 24.3975 56.4778 24.3929 56.1843 24.276C55.9261 24.1729 55.916 24.1486 55.833 24.1466C55.6649 24.1427 55.6487 24.2432 55.4058 24.2944C55.1709 24.3443 55.0566 24.2773 54.9219 24.3496C54.85 24.3883 54.7954 24.4547 54.8085 24.5217C54.8257 24.6084 54.9553 24.682 55.0839 24.6938C55.261 24.7102 55.3177 24.5992 55.6245 24.5526C55.7449 24.5342 55.8553 24.5171 55.9757 24.5467C56.1306 24.5841 56.2237 24.68 56.3736 24.8357C56.4768 24.9428 56.4748 24.9658 56.5446 24.996C56.6783 25.0545 56.7694 25.0058 56.9425 25.0577C57.1227 25.1116 57.2026 25.2167 57.2178 25.2364C57.235 25.2601 57.3403 25.4105 57.237 25.5071C57.1672 25.5715 57.068 25.5524 56.8574 25.6056C56.7015 25.645 56.5922 25.7015 56.3736 25.8145C56.1559 25.9275 56.1792 25.9393 55.9281 26.0792C55.6234 26.2487 55.5657 26.2448 55.4544 26.344C55.3208 26.4616 55.2782 26.5765 55.2459 26.6639C55.1861 26.8235 55.2033 26.9549 55.2367 27.2177C55.2438 27.2735 55.2661 27.4351 55.3501 27.6361C55.3926 27.7373 55.4392 27.8464 55.4918 27.845C55.5637 27.8431 55.6062 27.6375 55.6153 27.5928C55.6609 27.3556 55.588 27.2328 55.5779 26.8853C55.5728 26.7046 55.59 26.658 55.6346 26.6146C55.7216 26.5312 55.8148 26.5503 56.1185 26.43C56.327 26.3473 56.4313 26.3059 56.5355 26.2211C56.6347 26.1403 56.6469 26.0898 56.7349 26.0733C56.8868 26.0451 57.0548 26.1574 57.0761 26.1719C57.1905 26.2494 57.1966 26.321 57.2755 26.4609C57.2755 26.4609 57.3616 26.6153 57.5033 26.7684C57.7118 26.9943 58.0408 27.1021 58.3 27.1868C58.5449 27.267 58.8233 27.3583 59.1908 27.3589C59.6028 27.3596 59.6595 27.2466 60.281 27.1684C60.5857 27.1303 60.4896 27.1678 61.1263 27.1191C61.7559 27.0712 62.0708 27.0469 62.3481 26.9897C62.5081 26.9569 62.6073 26.9286 62.7753 26.928C63.1246 26.928 63.3766 27.0495 63.4293 27.0758C63.6702 27.1967 63.7664 27.3524 63.7988 27.4082C63.8959 27.5724 63.8261 27.6197 63.9314 27.7281C64.0174 27.8161 64.147 27.8588 64.4051 27.9436C64.7443 28.0546 64.9001 28.0592 65.0783 28.1834C65.1664 28.2444 65.1978 28.2911 65.2018 28.3371C65.2079 28.4001 65.1613 28.4533 65.0591 28.5341C64.8161 28.7279 64.6926 28.7338 64.5752 28.8541C64.5064 28.925 64.4881 29.0038 64.4517 29.1615C64.4274 29.2653 64.4203 29.3514 64.4234 29.6844C64.4264 30.007 64.4345 30.0602 64.3859 30.1646C64.3262 30.2927 64.2341 30.3814 64.1581 30.4537C64.0478 30.5594 63.9547 30.6166 63.6176 30.8169C63.1964 31.0666 62.9869 31.192 62.9069 31.2354C62.5658 31.4213 62.5233 31.4233 62.423 31.5126C62.2854 31.6348 62.2348 31.7465 62.1386 31.9619C62.0445 32.1715 61.9949 32.2819 61.9868 32.4421C61.9746 32.6773 62.0647 32.791 61.9301 32.9256C61.9027 32.9526 61.8248 33.0281 61.6932 33.0452C61.4988 33.0702 61.3237 32.9513 61.2852 32.9256C61.1172 32.812 61.1941 32.7437 61.02 32.6392C60.9137 32.5755 60.8287 32.5676 60.7922 32.498C60.77 32.4546 60.7679 32.3909 60.8206 32.3502C60.8864 32.3002 60.9755 32.3298 61.0767 32.295C61.2285 32.2424 61.3146 32.0736 61.2377 31.9442C61.1708 31.8312 61.0028 31.7879 60.8682 31.7537C60.7953 31.7346 60.526 31.6657 60.28 31.7353C60.1039 31.7852 60.1099 31.8588 59.8721 32.0677C59.5016 32.3942 59.3244 32.3594 59.2181 32.5722C59.1564 32.6944 59.1705 32.7949 59.0288 32.8678C58.9134 32.9263 58.8162 32.9053 58.7535 32.9664C58.6735 33.0445 58.7474 33.1615 58.8102 33.262C58.8466 33.3191 58.9215 33.4341 59.1037 33.5326C59.2201 33.5957 59.3791 33.6817 59.5309 33.6496C59.6787 33.618 59.7313 33.4932 59.7587 33.4282C59.8285 33.2633 59.7445 33.1221 59.7212 33.0833C59.6352 32.944 59.4874 32.8652 59.3416 32.7877C59.2252 32.7259 59.125 32.6911 58.9245 32.6215C58.8172 32.5847 58.6239 32.521 58.3647 32.4862C58.2119 32.4658 58.1552 32.471 58.1177 32.4921C58.0489 32.5328 58.1107 32.5978 58.0509 32.6891C58.0104 32.7516 57.9092 32.8324 57.7756 32.837C57.6227 32.8422 57.4871 32.7456 57.4537 32.6583C57.4253 32.5847 57.4871 32.565 57.4537 32.5046C57.4142 32.4323 57.3109 32.4349 57.0933 32.3259C56.9708 32.2648 56.906 32.2313 56.8848 32.1722C56.8665 32.1216 56.8767 32.0441 56.9516 32.006C57.0447 31.958 57.1439 32.0211 57.3686 31.9876C57.4314 31.9784 57.5114 31.9665 57.5863 31.9258C57.7098 31.8601 57.6987 31.7846 57.7665 31.778C57.8667 31.7681 57.9224 31.9298 58.0793 31.9383C58.1522 31.9422 58.2281 31.912 58.2686 31.8765C58.4113 31.7524 58.0955 31.5796 58.2119 31.4213C58.2433 31.3779 58.2696 31.3878 58.7433 31.1506C58.8243 31.1099 58.8618 31.0902 58.8668 31.0587C58.878 30.9818 58.6806 30.9457 58.3739 30.7939C58.0783 30.6488 58.0368 30.5719 57.8839 30.5726C57.7604 30.5726 57.6744 30.6231 57.5205 30.7138C57.2755 30.8583 57.2735 30.9523 56.989 31.1263C56.8787 31.194 56.8706 31.1848 56.8372 31.2183C56.7015 31.3569 56.8655 31.487 56.7522 31.6492C56.7299 31.6801 56.6651 31.7235 56.5345 31.8095C56.3341 31.9409 56.1488 32.0316 56.0982 32.0559C55.8583 32.1715 55.8208 32.1603 55.7571 32.2221C55.7186 32.2589 55.6872 32.3055 55.672 32.542C55.6518 32.8613 55.7014 32.9053 55.6346 33.0524C55.586 33.1595 55.5435 33.1707 55.5303 33.2613C55.5141 33.3763 55.5657 33.4702 55.6255 33.5753C55.6649 33.6436 55.7176 33.7113 55.8249 33.846C55.9727 34.0325 56.001 34.0496 56.0051 34.1107C56.0122 34.2112 55.9464 34.3058 55.9099 34.3571C55.8806 34.3991 55.8563 34.4339 55.8057 34.474C55.7662 34.5049 55.7459 34.5121 55.7206 34.5417C55.7014 34.564 55.6558 34.6165 55.6832 34.6586C55.7277 34.7289 55.9454 34.7322 55.9676 34.7322C56.0506 34.7335 56.0739 34.721 56.1002 34.7341C56.162 34.7663 56.1235 34.8839 56.0405 34.9706C55.9585 35.0567 55.8978 35.0435 55.7844 35.148C55.7075 35.2196 55.673 35.284 55.6568 35.3221C55.6295 35.3864 55.6072 35.437 55.6356 35.4935C55.671 35.5651 55.7459 35.5638 55.7874 35.6341C55.7986 35.6532 55.8087 35.6807 55.7702 35.8253C55.7318 35.9665 55.7105 35.9836 55.6872 36.0887C55.6791 36.1235 55.6649 36.1899 55.6629 36.2772C55.6589 36.4283 55.6943 36.4671 55.6427 36.5249C55.6305 36.538 55.6204 36.5459 55.4483 36.6247C55.2732 36.7049 55.1851 36.7449 55.1466 36.7548C54.9806 36.7975 54.9128 36.7653 54.8318 36.8159C54.7772 36.8501 54.765 36.8921 54.7448 36.9637C54.7296 37.0163 54.7033 37.1095 54.7579 37.2068C54.8146 37.3066 54.8885 37.2922 54.9584 37.3933C54.9776 37.4216 55.0606 37.551 54.9715 37.6758C54.9533 37.7014 54.9037 37.7717 54.7842 37.8019C54.6729 37.8302 54.5717 37.8059 54.5565 37.8019C54.4542 37.7763 54.436 37.7297 54.2953 37.5976C54.1141 37.4275 54.0696 37.4341 54.0473 37.3631C54.0149 37.2567 54.1101 37.2212 54.0544 37.1332C53.9977 37.0425 53.8499 37.0025 53.8205 36.9939C53.7244 36.9676 53.6424 36.9703 53.5594 36.9722C53.3296 36.9775 53.0998 36.9703 52.87 36.9722C52.7181 36.9736 52.5653 36.9854 52.4145 36.9755C52.2808 36.967 52.1654 36.9506 52.0531 36.9939C52.0267 37.0038 51.966 37.0274 51.9397 37.0721C51.9134 37.1168 51.9458 37.1398 51.9326 37.2068C51.9275 37.2317 51.9164 37.2928 51.8658 37.3244C51.7848 37.3743 51.6208 37.3375 51.5246 37.3198C51.146 37.2501 50.6662 37.2593 50.6166 37.3355C50.5792 37.3933 50.7634 37.5227 50.974 37.5779C51.2048 37.639 51.2908 37.5641 51.5459 37.6193C51.7909 37.6719 51.7463 37.7474 52.0227 37.8151C52.1756 37.8525 52.2231 37.8374 52.5552 37.9031C52.7283 37.9373 52.8022 37.9583 52.8416 38.0062C52.9004 38.0785 52.8416 38.1672 52.8254 38.1921C52.7293 38.3373 52.538 38.3268 52.4762 38.4451C52.4286 38.535 52.4873 38.6402 52.5633 38.7032C52.7374 38.8445 53.0401 38.7926 53.0714 38.8681C53.116 38.9719 52.538 39.0566 52.4438 39.3273C52.3902 39.4804 52.5238 39.6019 52.4124 39.6623C52.3517 39.6952 52.2788 39.6781 52.0865 39.6623C51.8881 39.6459 51.7129 39.6479 51.3637 39.6518C51.058 39.6551 50.9051 39.6571 50.8069 39.6833C50.5164 39.7622 50.5174 39.9014 50.2583 39.9816C50.0629 40.042 49.8797 40.019 49.5831 39.9816C49.0982 39.9205 48.7105 39.7747 48.3906 39.6518C48.0676 39.5276 48.0049 39.4777 47.7943 39.4508C47.7397 39.4436 47.5402 39.4429 47.1424 39.4403C46.6798 39.4377 46.8954 39.4455 46.7132 39.4429C46.7132 39.4429 46.612 39.4416 46.3791 39.4554C46.2617 39.4626 46.201 39.4692 46.1807 39.4968C46.1595 39.5257 46.1908 39.5658 46.2202 39.5894C46.3022 39.6538 46.449 39.6505 46.7132 39.6512C47.0108 39.6512 47.1606 39.6518 47.1819 39.6564C47.4997 39.7182 47.4593 39.9225 47.8419 40.0637C48.0838 40.153 48.1952 40.1057 48.2944 40.1977C48.428 40.3205 48.2822 40.4552 48.4219 40.5794C48.5019 40.6503 48.6234 40.6713 48.7874 40.6983C49.3472 40.7889 49.6235 40.6208 49.9799 40.7502C50.0244 40.7666 50.2127 40.8389 50.2026 40.9203C50.1935 40.9926 50.0335 41.0458 49.8371 41.1108C49.6316 41.1791 49.6073 41.1601 49.5274 41.2087C49.4008 41.2856 49.4393 41.3467 49.2966 41.4353C49.1862 41.5043 49.1376 41.4826 49.082 41.5385C48.9817 41.6383 49.1093 41.7329 49.0182 41.8012C48.9423 41.8584 48.7631 41.8623 48.6528 41.8216C48.5515 41.7848 48.5616 41.7296 48.4543 41.7027C48.3794 41.6843 48.2772 41.6869 48.2154 41.7231C48.1628 41.7539 48.1567 41.7993 48.1517 41.8479C48.1284 42.0975 48.1932 42.1481 48.1355 42.2079C48.0828 42.2624 47.9937 42.2585 47.6506 42.3005C47.2254 42.3531 47.2912 42.3675 47.0867 42.3833C46.5958 42.4207 46.4115 42.3222 46.2364 42.4194C46.1007 42.4949 46.1736 42.5757 46.038 42.6362C45.8133 42.736 45.5136 42.56 45.3304 42.6565C45.1947 42.7288 45.2443 42.8891 45.2504 42.9095C45.302 43.0651 45.5339 43.1972 45.711 43.1775C45.8568 43.1617 45.8416 43.0573 46.037 42.9607C46.3346 42.8142 46.7476 42.872 46.863 42.8884C47.0493 42.9147 47.2902 42.9489 47.4147 43.0895C47.5372 43.2274 47.4653 43.3765 47.4593 43.3884C47.4016 43.502 47.271 43.5644 47.2052 43.5946C46.9237 43.7247 46.7193 43.6432 46.5937 43.7542C46.4976 43.8396 46.5097 43.9822 46.5694 44.0742C46.613 44.1405 46.6595 44.1471 46.6727 44.2082C46.6859 44.266 46.6504 44.2929 46.5775 44.4348C46.5259 44.5347 46.5006 44.5846 46.5057 44.6155C46.5219 44.7055 46.6241 44.7212 46.6808 44.8323C46.7051 44.8802 46.7071 44.9183 46.7051 45.0024C46.6929 45.3887 46.6312 45.3893 46.6808 45.4668C46.7749 45.6114 47.0037 45.6245 47.0149 45.7657C47.0159 45.7815 47.0199 45.8249 46.9835 45.8689C46.9075 45.9602 46.7446 45.951 46.7294 45.9976C46.7081 46.06 46.9733 46.152 47.2143 46.2348C47.5352 46.3445 47.6921 46.3727 47.7862 46.4877C47.8095 46.5166 47.85 46.5652 47.8419 46.6269C47.8247 46.7577 47.6162 46.7708 47.4522 46.916C47.2649 47.0815 47.4036 47.1814 47.1738 47.452C47.0412 47.6077 46.9541 47.6235 46.9278 47.6274C46.8023 47.6452 46.6707 47.5847 46.4429 47.4777C46.2283 47.3772 46.1959 47.3344 46.125 47.3436C45.9803 47.3614 46.0501 47.5466 45.8315 47.6688C45.714 47.7339 45.6543 47.703 45.2119 47.8337C45.1208 47.8606 45.0611 47.8803 45.0054 47.9211C44.9174 47.9861 44.8485 48.0965 44.9022 48.1838C44.967 48.2916 45.1826 48.3126 45.1725 48.3389C45.1542 48.3849 44.4861 48.2574 44.3859 48.375C44.3282 48.442 44.478 48.5629 44.5448 48.6174C44.7918 48.8178 45.0014 48.7869 45.1887 48.9373C45.3982 49.1055 45.4397 49.3873 45.2686 49.5049C45.2292 49.5318 45.2059 49.5312 44.6967 49.6133C44.4325 49.656 44.3221 49.675 44.228 49.7421C44.1622 49.7887 44.0761 49.8787 44.1247 49.9378C44.1784 50.0022 44.3647 49.9963 44.4183 49.9943C44.7179 49.9845 44.7888 49.8511 45.0065 49.8656C45.1907 49.878 45.2069 49.9772 45.3557 49.9739C45.5895 49.968 45.631 49.721 45.8406 49.7112C46.0562 49.7007 46.3386 49.9477 46.452 50.1598C46.5047 50.2584 46.5138 50.3366 46.619 50.3714C46.7547 50.4167 46.866 50.3287 47.0321 50.3714C47.1809 50.4095 47.1535 50.4949 47.3185 50.5573C47.4795 50.6184 47.5615 50.5573 47.7397 50.5987C47.9948 50.6578 48.1112 50.8476 48.1922 50.9803C48.3045 51.1636 48.1749 51.295 48.3035 51.3515C48.3713 51.3817 48.4847 51.385 48.5384 51.3515C48.6497 51.2805 48.4118 51.1012 48.5384 50.9685C48.589 50.9153 48.6892 50.8792 48.7763 50.8844C48.9089 50.8923 48.9898 50.9941 49.0475 51.0671C49.1569 51.2057 49.1042 51.2523 49.1994 51.3758C49.2662 51.4632 49.4191 51.6038 49.5355 51.5873C49.659 51.5703 49.7349 51.3771 49.6762 51.2221C49.6165 51.0644 49.4261 50.9633 49.33 50.9127C49.082 50.7819 48.92 50.7964 48.8643 50.6946C48.8036 50.5836 48.9605 50.5001 48.8856 50.4344C48.8218 50.3779 48.6821 50.42 48.3977 50.4062C48.18 50.3957 48.0342 50.3602 47.7589 50.2939C47.4532 50.2196 47.2963 50.1802 47.271 50.0968C47.2487 50.0193 47.3509 49.9411 47.3681 49.928C47.4805 49.8419 47.6334 49.8347 47.6283 49.8156C47.6222 49.7907 47.3671 49.8235 47.0655 49.7736C46.9774 49.7591 46.6757 49.7092 46.6646 49.6258C46.6524 49.5338 47.0027 49.4445 47.1738 49.4011C47.2872 49.3722 47.5504 49.3111 48.0403 49.2816C48.6001 49.248 48.917 49.2283 49.0799 49.3518C49.1427 49.3991 49.1721 49.4596 49.2966 49.5062C49.4282 49.5555 49.498 49.5259 49.6104 49.5555C49.8068 49.6067 49.7703 49.7407 50.0001 49.97C50.0811 50.0508 50.2117 50.1782 50.4445 50.265C50.6247 50.3326 50.6804 50.3063 50.8666 50.3563C51.1602 50.4351 51.1511 50.533 51.636 50.8483C51.9539 51.0552 52.0561 51.0762 52.1239 51.207C52.1907 51.3364 52.13 51.3922 52.2322 51.4954C52.375 51.6399 52.5774 51.6129 52.6331 51.7345C52.6706 51.8153 52.623 51.9191 52.5784 52.0156C52.5491 52.0807 52.5218 52.1109 52.5349 52.1634C52.5501 52.2239 52.5997 52.2396 52.622 52.3113C52.6351 52.3553 52.6534 52.4137 52.6108 52.4446C52.5137 52.5149 52.2171 52.3592 52.0146 52.4446C51.9296 52.4807 51.9609 52.5169 51.8739 52.5504C51.6896 52.6207 51.4599 52.4899 51.3647 52.5504C51.2898 52.5977 51.388 52.7061 51.31 52.7402C51.2463 52.7685 51.1552 52.7074 51.0499 52.7402C50.9831 52.7612 50.9962 52.7921 50.9416 52.8105C50.8373 52.8453 50.73 52.7507 50.4759 52.691C50.2461 52.6371 50.1631 52.6745 50.0862 52.6134C49.9789 52.528 50.0548 52.3868 50.0649 52.3671C50.0841 52.3316 50.1459 52.2153 50.2603 52.2055C50.4384 52.1897 50.5336 52.4492 50.7482 52.4446C50.8606 52.442 50.9628 52.3671 50.9861 52.2968C51.0236 52.1864 50.8707 52.0813 50.7482 52.0367C50.5478 51.9637 50.317 52.0097 50.1094 52.0505C49.6914 52.1332 49.6448 52.2469 49.416 52.2265C49.2055 52.2075 49.0303 52.0918 48.9504 51.9946C48.924 51.9631 48.9038 51.9151 48.8633 51.8186C48.8056 51.6819 48.7752 51.5683 48.7661 51.5302C48.7125 51.3219 48.7317 51.2628 48.6902 51.2562C48.6163 51.2438 48.4726 51.4211 48.4088 51.5729C48.3673 51.6721 48.342 51.7325 48.3764 51.8048C48.4219 51.9013 48.5252 51.9178 48.5819 52.0367C48.6072 52.0905 48.6406 52.1595 48.593 52.1983C48.4705 52.2981 47.934 52.1017 47.8672 52.17C47.8449 52.1937 47.8905 52.2324 48.1051 52.4229C48.348 52.6384 48.3906 52.6778 48.4088 52.7461C48.4169 52.7757 48.4554 52.9235 48.3005 53.0201C48.2144 53.0739 48.0525 53.1212 47.9431 53.0831C47.7832 53.0279 47.9067 52.8532 47.7154 52.7179C47.605 52.6397 47.4157 52.5924 47.2497 52.6056C47.0371 52.622 46.9804 52.7284 46.7405 52.7323C46.6879 52.733 46.536 52.7356 46.4915 52.6831C46.4216 52.6016 46.7041 52.4952 46.6757 52.3526C46.6433 52.1904 46.2384 52.1497 46.2536 52.0577C46.2728 51.9375 46.9632 51.9723 47.0442 51.7975C47.0938 51.6898 46.9045 51.521 46.6646 51.4809C46.4389 51.4435 46.2465 51.5335 46.2101 51.5512C45.9013 51.6964 45.8487 52.0064 45.8305 52.1135C45.8092 52.2416 45.8355 52.2791 45.7758 52.3172C45.6027 52.4295 45.1968 52.2285 44.9963 52.3382C44.8516 52.417 45.0024 52.553 44.8556 52.7179C44.6926 52.9005 44.3171 52.9465 44.1733 52.9642C43.6824 53.0247 43.5437 52.8637 43.2197 52.9504C42.8715 53.0437 42.8695 53.2736 42.6022 53.2809C42.3613 53.2874 42.2884 53.1022 42.0171 53.112C41.7813 53.1206 41.7043 53.2658 41.5292 53.2388C41.3834 53.2158 41.3105 53.0936 41.2579 53.0069C41.1253 52.7855 41.2387 52.7001 41.1607 52.578C41.1111 52.5004 40.9694 52.3842 39.6767 52.2403C38.8355 52.147 38.8577 52.1924 38.5824 52.1207C38.0297 51.9775 38.0196 51.8166 37.4233 51.699C37.0579 51.6274 36.8514 51.5867 36.5781 51.6149C36.4323 51.63 36.3057 51.6609 36.1337 51.6287C35.9332 51.5919 35.9302 51.5177 35.754 51.4671C35.3754 51.3581 34.8895 51.5584 34.8551 51.5729C34.6091 51.6767 34.6253 51.7562 34.4107 51.7975C34.1779 51.8429 33.9592 51.7877 33.858 51.7621C33.7132 51.7253 33.5351 51.6806 33.4683 51.565C33.4096 51.4638 33.4703 51.3679 33.4794 51.3541C33.5381 51.2641 33.6333 51.2549 33.7072 51.1925C33.8661 51.0579 33.7456 50.8319 33.6525 50.6585C33.5037 50.3806 33.3873 50.3917 33.284 50.1592C33.2061 49.9831 33.2122 49.838 33.2192 49.6672C33.2263 49.4898 33.2334 49.3321 33.3387 49.1469C33.4521 48.9478 33.5462 48.9531 33.7396 48.6969C33.7993 48.6181 33.941 48.4262 33.9997 48.2049C34.0564 47.9881 33.9906 47.904 33.9349 47.565C33.8195 46.8634 34.0382 46.8339 33.8479 46.4686C33.775 46.3287 33.6677 46.1894 33.6424 45.9556C33.6252 45.8032 33.6505 45.6777 33.6636 45.6114C33.7224 45.3256 33.8337 45.2645 33.859 45.0418C33.8661 44.9735 33.856 44.9794 33.8044 44.6693C33.7345 44.2489 33.7001 44.0387 33.696 43.8889C33.69 43.6675 33.7153 43.6268 33.6525 43.5375C33.528 43.3601 33.2557 43.2773 33.0897 43.2281C32.7718 43.1348 32.4894 43.1256 32.1148 43.1157C31.5601 43.1013 31.3799 43.1545 31.1511 43.0527C31.0691 43.0159 30.9983 42.9456 30.8586 42.8063C30.4759 42.4233 30.5356 42.3393 30.2957 42.2085C30.1196 42.1126 30.0305 42.1271 29.7865 41.9839C29.6155 41.8834 29.5527 41.8137 29.5152 41.752C29.4606 41.66 29.4606 41.5772 29.4606 41.5273C29.4606 41.4458 29.4626 41.3861 29.5152 41.3237C29.5912 41.233 29.6904 41.2389 29.7207 41.1693C29.7521 41.0983 29.6853 41.0116 29.6013 40.9656C29.411 40.8599 29.0982 40.9413 29.005 40.9656C28.753 41.0313 28.6285 41.1522 28.6042 41.1765C28.5789 41.2021 28.3875 41.3953 28.4959 41.4997C28.5525 41.5542 28.6487 41.545 28.7236 41.6265C28.7449 41.6501 28.7854 41.6935 28.7672 41.7388C28.7429 41.7986 28.6447 41.7947 28.5505 41.8656C28.4847 41.9155 28.4169 42.0049 28.4635 42.0555C28.508 42.1034 28.6457 42.1041 28.7995 42.1047C28.9635 42.1047 29.0172 42.0857 29.0597 42.112C29.1215 42.1501 29.0405 42.2098 29.081 42.3018C29.1134 42.3754 29.1822 42.3741 29.3735 42.5127C29.5476 42.6395 29.5578 42.6894 29.5578 42.7163C29.5578 42.7229 29.5557 42.8043 29.4707 42.8431C29.3553 42.8963 29.164 42.8333 29.0698 42.8011C28.835 42.7209 28.672 42.602 28.3987 42.3301C28.0292 41.9628 28.0839 41.9385 27.933 41.8728C27.8085 41.819 27.771 41.8354 27.0554 41.7185C26.693 41.6587 26.611 41.6396 26.535 41.5851C26.37 41.4649 26.3943 41.2875 26.4156 41.1561C26.4551 40.9151 26.5826 40.7653 26.7618 40.5235C26.7618 40.5235 27.0088 40.1911 27.2497 39.8068C27.3823 39.5947 27.5595 39.3109 27.6617 38.9561C27.7042 38.8083 27.7083 38.4549 27.7164 37.754C27.7214 37.2514 27.7154 37.1246 27.6951 36.967C27.6769 36.8238 27.6688 36.8297 27.5868 36.3344C27.4269 35.3713 27.5504 35.9212 27.5109 35.7228C27.4643 35.4837 27.4117 35.3326 27.5544 35.2308C27.5696 35.2196 27.6708 35.15 27.7923 35.1605C27.9239 35.1723 27.9927 35.2708 28.0089 35.2938C28.0808 35.397 28.0393 35.5027 28.0089 35.5822C27.9654 35.6952 27.9199 35.6998 27.8895 35.8069C27.8713 35.8699 27.852 35.9402 27.8895 36.0177C27.928 36.0985 27.9978 36.1215 28.1385 36.2358C28.2104 36.2936 28.2711 36.3475 28.3339 36.4185C28.4665 36.5709 28.424 36.6109 28.5293 36.6858C28.6345 36.7607 28.8319 36.831 28.9514 36.7844C29.0607 36.7417 29.0506 36.6234 29.0486 36.6017C29.0415 36.5104 28.9615 36.4099 28.8107 36.3626C28.7884 36.3554 28.6538 36.3153 28.507 36.3488C28.3298 36.3889 28.259 36.5085 28.182 36.6372C28.1628 36.6687 28.1476 36.7003 28.0626 37.059C28.0231 37.2258 28.014 37.2711 28.0626 37.3053C28.1517 37.3677 28.3562 37.3316 28.4959 37.3053C28.6517 37.2764 28.9787 37.1989 29.3512 36.9611C29.6033 36.8008 29.5881 36.7509 29.7956 36.6661C30.0123 36.5774 30.0872 36.6077 30.3048 36.5255C30.3848 36.4953 30.733 36.3633 30.814 36.1531C30.8292 36.1123 30.8596 36.0046 30.5103 35.5835C30.2654 35.2873 30.1742 35.2492 29.9364 34.9437C29.7025 34.6441 29.6823 34.543 29.6762 34.4937C29.658 34.3498 29.7096 34.2828 29.6549 34.1212C29.6367 34.0674 29.5932 33.9471 29.4596 33.8263C29.2905 33.6726 29.0678 33.6003 28.8967 33.5451C28.5809 33.4426 28.5131 33.4847 28.3228 33.3835C28.2306 33.3342 28.099 33.2646 28.0089 33.1444C27.9401 33.0531 27.9361 32.9894 27.846 32.9618C27.765 32.9368 27.6405 32.9506 27.5858 32.9972C27.5473 33.0301 27.5494 33.0754 27.6729 33.3277C27.763 33.5123 27.7842 33.5333 27.7812 33.595C27.7771 33.6811 27.7326 33.685 27.6617 33.8414C27.6091 33.957 27.5585 34.0674 27.5858 34.2001C27.601 34.273 27.6202 34.2585 27.6617 34.3899C27.7275 34.5995 27.683 34.6514 27.6617 34.6711C27.6222 34.7085 27.5483 34.7427 27.4663 34.7414C27.3368 34.7394 27.2568 34.6487 27.2386 34.629C27.1414 34.5193 27.1859 34.3971 27.2062 34.3196C27.2133 34.294 27.193 34.0963 27.1515 33.7008C27.1161 33.3526 27.0908 33.2896 27.0867 33.0472C27.0817 32.7653 27.112 32.6852 27.1515 32.6182C27.2629 32.4316 27.3975 32.4362 27.4765 32.2667C27.5585 32.09 27.4299 32.0487 27.4876 31.803C27.5271 31.6348 27.5969 31.6157 27.6607 31.4377C27.7164 31.2833 27.7012 31.1966 27.6931 30.9385C27.6911 30.8826 27.6951 30.6034 27.7042 30.0457C27.7103 29.6325 27.7164 29.6003 27.6718 29.5182C27.6202 29.4243 27.5423 29.3369 27.5959 29.237C27.6334 29.1668 27.7376 29.0892 27.8449 29.0965C27.9502 29.1037 28.011 29.1911 28.0181 29.2022C28.1061 29.3336 27.9391 29.4328 28.0181 29.5044C28.0798 29.5609 28.1972 29.5143 28.4948 29.5537C28.7246 29.5839 28.7277 29.6213 28.9494 29.645C29.2116 29.6726 29.2703 29.6273 29.3502 29.666C29.576 29.7757 29.2763 30.2205 29.3826 30.2494C29.415 30.2579 29.4545 30.2218 29.7076 30.0385C29.9353 29.8729 29.9657 29.8572 29.989 29.8066C30.0578 29.6555 29.9232 29.5123 29.9019 29.49C29.7825 29.3665 29.658 29.3809 29.3928 29.2581C29.1053 29.1247 29.1984 29.0833 28.7641 28.8081C28.5404 28.6662 28.4159 28.6143 28.4068 28.5059C28.3997 28.4258 28.4564 28.3266 28.5586 28.3023C28.6993 28.2688 28.9139 28.3791 29.0789 28.4639C29.2055 28.5289 29.2561 28.5716 29.328 28.5624C29.412 28.5519 29.4818 28.4757 29.4798 28.408C29.4758 28.2825 29.2237 28.1853 29.0577 28.1479C28.8795 28.1078 28.835 28.1433 28.7327 28.0986C28.5323 28.0106 28.586 27.8194 28.4726 27.8037C28.3855 27.7912 28.2711 27.8923 28.2124 27.9653C28.1294 28.0684 28.1142 28.1682 28.093 28.5906C28.0869 28.7181 28.0828 28.8002 27.9958 28.837C27.9229 28.8672 27.8065 28.8606 27.7356 28.8232C27.6891 28.7982 27.6637 28.7614 27.6486 28.6688C27.6212 28.498 27.6597 28.3877 27.6597 28.3877C27.7073 28.2497 27.7235 28.0966 27.7569 27.7899C27.7842 27.5337 27.7225 27.5777 27.7245 27.15C27.7255 26.7927 27.769 26.8196 27.7457 26.5949C27.7295 26.4314 27.6982 26.3295 27.7457 26.166C27.7872 26.0228 27.8652 25.919 27.8865 25.892C28.0403 25.6923 28.1881 25.6693 28.3632 25.4631C28.4037 25.4158 28.4705 25.3356 28.5151 25.2239C28.6163 24.9697 28.4786 24.8587 28.5475 24.5559C28.5738 24.4416 28.6173 24.3535 28.6447 24.3029C28.7034 24.1978 28.9018 23.8385 29.2733 23.8037C29.3057 23.8004 29.4191 23.7899 29.5112 23.8319C29.6802 23.9081 29.662 24.1059 29.6195 24.2189C29.5972 24.2773 29.5183 24.3706 29.3593 24.5565C29.249 24.6859 29.2075 24.726 29.2075 24.7956C29.2075 24.8856 29.2784 24.9001 29.3371 25.0203C29.4353 25.22 29.3047 25.3093 29.413 25.379C29.4839 25.4236 29.5476 25.3921 29.9222 25.421C30.2249 25.4447 30.2816 25.4729 30.3119 25.4985C30.3686 25.5452 30.3646 25.6043 30.3554 25.7232C30.3423 25.8907 30.2805 25.9466 30.3342 26.0464C30.3504 26.0766 30.3878 26.1463 30.4536 26.1522C30.565 26.1614 30.5903 25.9715 30.811 25.871C30.978 25.7948 31.1865 25.8106 31.6016 25.8428C31.9539 25.8697 32.13 25.8835 32.3163 25.9413C32.8133 26.095 32.9317 26.3762 33.1393 26.342C33.3164 26.3131 33.2901 26.0976 33.5401 26.0471C33.6343 26.028 33.777 26.0306 33.854 26.0825C33.9775 26.1646 33.8246 26.2967 33.9511 26.455C34.02 26.5411 34.0756 26.5148 34.1465 26.5956C34.2933 26.7644 34.0807 26.9116 34.2012 27.0876C34.2568 27.1691 34.352 27.2105 34.4725 27.2637C34.9796 27.4857 35.5911 27.3372 35.6316 27.3267C35.7935 27.2853 36.0193 27.2282 36.0648 27.1086C36.1104 26.9891 35.9302 26.9208 35.9676 26.771C35.998 26.6495 36.1306 26.6429 36.2167 26.5181C36.3381 26.342 36.2632 26.0792 36.0436 25.942C35.7844 25.7804 35.4959 25.8986 35.2742 25.7383C35.09 25.605 35.0606 25.3573 35.2195 25.2535C35.424 25.1195 35.7672 25.3369 36.1296 25.2187C36.5092 25.0945 36.3483 24.7864 36.8666 24.4593C37.0235 24.3608 37.1804 24.2616 37.4294 24.2274C37.8424 24.1709 38.1319 24.345 38.3506 24.2346C38.4538 24.1821 38.5176 24.0783 38.47 24.0165C38.3718 23.8904 37.8596 24.0165 37.7007 23.8687C37.6349 23.8076 37.6551 23.7229 37.7118 23.6086C37.8535 23.3189 38.1127 22.7901 38.795 22.6455C39.1827 22.5634 39.2313 22.706 39.8569 22.6173C40.1869 22.5707 40.359 22.5043 40.5938 22.5608C40.8479 22.6226 40.9795 22.7822 41.0058 22.8137C41.1496 22.9891 41.0352 23.0693 41.1577 23.2637C41.2731 23.447 41.4047 23.4214 41.5586 23.6053C41.7873 23.8792 41.6942 24.1716 41.678 24.2182C41.6031 24.4356 41.4179 24.5749 41.2255 24.7194C40.8631 24.9907 40.6951 24.9572 40.5068 25.1688C40.3651 25.3271 40.3499 25.4696 40.3205 25.7304C40.2952 25.9617 40.2659 26.2159 40.4805 26.3006C40.5361 26.3223 40.6445 26.3479 40.7204 26.3177C40.9046 26.2441 40.6404 25.9374 40.8803 25.756C40.9988 25.666 41.103 25.7127 41.2134 25.6181C41.3946 25.4624 41.1921 25.2719 41.3602 25.1773C41.4614 25.1201 41.6547 25.1228 41.7327 25.1773C41.8501 25.2594 41.6568 25.4289 41.7722 25.5058C41.8359 25.5478 41.9503 25.5347 42.1184 25.5143C42.4281 25.4762 42.499 25.4144 42.7703 25.3671C42.9414 25.3376 43.2491 25.2844 43.3696 25.3757C43.485 25.4637 43.3645 25.6398 43.3564 25.6523C43.24 25.8178 43.0416 25.806 42.9171 25.963C42.8371 26.0648 42.8482 26.1607 42.8634 26.2914C42.8766 26.4031 42.8999 26.5943 43.1165 26.7408C43.1641 26.773 43.3453 26.8951 43.5295 26.8702C43.6611 26.8524 43.656 26.7782 43.7957 26.7322C44.0458 26.6495 44.2584 26.8209 44.475 26.7493C44.6521 26.6908 44.7574 26.4931 44.6481 26.3604C44.5884 26.2881 44.4598 26.2271 44.3151 26.2225C44.0103 26.2119 43.8798 26.4589 43.6358 26.43C43.4718 26.4103 43.3858 26.2816 43.3696 26.2573C43.2754 26.1173 43.3726 26.0024 43.4627 25.7652C43.5811 25.4525 43.4769 25.488 43.5953 25.1523C43.7026 24.8488 43.8079 24.7648 43.7421 24.5907C43.7239 24.5421 43.6722 24.4146 43.489 24.3227C43.4465 24.301 43.2481 24.2077 43.0102 24.2366C42.832 24.2583 42.7227 24.3371 42.5972 24.4264C42.3633 24.594 42.3816 24.6932 42.1983 24.7457C42.0789 24.7805 41.9027 24.7871 41.8258 24.7286C41.7327 24.657 41.8278 24.521 41.8521 24.4869C41.9726 24.3154 42.1548 24.3305 42.2783 24.1847C42.4079 24.0316 42.2479 23.9679 42.3583 23.7873C42.4909 23.5692 42.7743 23.579 42.8108 23.4161C42.8462 23.2598 42.6225 23.0798 42.3978 23.0016C42.1761 22.9241 42.0435 22.9773 41.9189 22.8893C41.7843 22.794 41.7975 22.6311 41.8521 22.5266C41.9159 22.4045 42.0111 22.4077 42.2247 22.2074C42.3512 22.0878 42.4231 22.0188 42.4514 21.9137C42.4605 21.8789 42.502 21.7219 42.3714 21.5853C42.2398 21.448 42.0698 21.4736 41.9858 21.3777C41.8207 21.1898 42.256 20.8384 42.4119 20.7129C42.5283 20.619 42.6711 20.5191 43.4505 20.1256C44.1835 19.7551 44.311 19.7157 44.4618 19.6848C44.6613 19.6447 44.6086 19.6802 45.4731 19.6415C45.4731 19.6415 45.9985 19.6178 46.698 19.6329C46.8873 19.6369 47.1333 19.6447 47.2568 19.7538C47.274 19.7689 47.3509 19.8405 47.3236 19.918C47.2973 19.9909 47.2021 20.0008 47.0574 20.1079C46.9976 20.1525 46.9278 20.2044 46.8843 20.2806C46.864 20.3168 46.7881 20.4679 46.9106 20.5914C46.9318 20.6124 47.0128 20.6938 47.1373 20.6952C47.2355 20.6958 47.3064 20.6472 47.3236 20.6347C47.4643 20.5375 47.3681 20.4304 47.4431 20.2977C47.522 20.1571 47.6779 20.192 47.9492 20.0041C48.0383 19.9423 48.1456 19.8221 48.3622 19.581C48.4594 19.4726 48.5363 19.3813 48.6821 19.2618C48.7965 19.1678 48.8552 19.1205 48.9483 19.089C49.0121 19.0673 49.1528 19.0312 49.5608 19.089C50.0619 19.1599 50.0649 19.246 50.3109 19.2315C50.4688 19.2223 50.6227 19.1705 50.9324 19.0673C51.1562 18.9931 51.1764 18.9688 51.2878 18.9609C51.5064 18.9451 51.639 19.022 51.7797 18.9655C51.7929 18.9602 51.886 18.9215 51.882 18.8722C51.8769 18.8032 51.6846 18.7822 51.3293 18.6594C51.1126 18.5845 51.0023 18.5457 50.9466 18.482C50.8717 18.3966 50.9223 18.3513 50.8302 18.2291C50.7877 18.1739 50.734 18.1023 50.6115 18.0563C50.5984 18.0511 50.4192 17.986 50.2218 18.03C50.0224 18.0747 49.9363 18.2022 49.8867 18.2738C49.7562 18.4656 49.8584 18.5694 49.7298 18.6502C49.6458 18.7034 49.5355 18.7008 49.2581 18.6942C48.6548 18.681 48.3521 18.6745 48.2954 18.681C48.0383 18.7086 47.7609 18.7822 47.4552 18.863C47.3094 18.9018 47.193 18.9366 47.0452 18.9162C46.8873 18.8945 46.862 18.8321 46.6555 18.7921C46.5755 18.7763 46.4328 18.7487 46.2799 18.7789C46.0997 18.8144 46.1068 18.8919 45.9246 18.9294C45.7809 18.9589 45.7434 18.9175 45.5622 18.934C45.3405 18.9537 45.3273 19.0226 45.1178 19.0627C44.8252 19.1186 44.7169 19.0095 44.4618 19.0581C44.3414 19.0811 44.3221 19.1146 44.0387 19.2972C43.4951 19.648 43.3007 19.6953 43.2056 19.7137C43.0861 19.7367 42.8988 19.7735 42.7278 19.7183C42.5354 19.6559 42.5597 19.5416 42.3593 19.3373C42.256 19.2329 42.004 18.976 41.6426 18.9563C41.427 18.9445 41.2346 19.0207 41.1506 19.0535C41.0291 19.1015 40.8763 19.1856 40.7062 19.2795C40.606 19.3347 40.5706 19.357 40.4977 19.3702C40.3833 19.3905 40.278 19.3682 40.1191 19.3327C39.8954 19.2834 39.8984 19.2545 39.7982 19.2532C39.698 19.2513 39.6008 19.292 39.4084 19.3728C39.1918 19.4641 39.1321 19.5147 38.9782 19.5278C38.8993 19.5344 38.8375 19.5278 38.8011 19.5232C38.5622 19.4956 38.4022 19.3866 38.3506 19.3504C38.2443 19.2762 38.2453 19.2421 38.1937 19.2394C38.0682 19.2329 38.0469 19.4319 37.8181 19.5009C37.6157 19.5626 37.4729 19.4542 37.3332 19.514C37.1682 19.585 37.3191 19.7564 37.1895 19.9706C37.065 20.1775 36.7137 20.3667 36.3634 20.3871C36.0142 20.4074 35.8158 20.2511 35.585 20.3385C35.5091 20.3667 35.4888 20.3995 35.3805 20.5244C35.0606 20.8922 35.0161 20.8646 34.8885 21.0519C34.7104 21.3133 34.8369 21.31 34.6699 21.5262C34.6223 21.5872 34.6375 21.5551 34.1172 21.9873C33.9734 22.1069 33.8843 22.1818 33.7213 22.2179C33.6414 22.2356 33.5857 22.2343 33.448 22.2665C33.3073 22.2993 33.2192 22.3197 33.1545 22.3598C32.9834 22.4642 33.0036 22.6804 33.0725 22.8163C33.1383 22.9451 33.2395 22.9858 33.2769 23.1487C33.2931 23.2171 33.3012 23.2538 33.2769 23.2992C33.2071 23.4279 32.9854 23.4207 32.9358 23.5344C32.8923 23.6342 33.0218 23.7393 33.031 23.7472C33.1352 23.83 33.2405 23.8076 33.3316 23.8937C33.3458 23.9075 33.4187 23.9797 33.3934 24.0711C33.3731 24.1413 33.2942 24.2248 33.1818 24.2392C33.0947 24.251 33.0583 24.2116 32.8406 24.1459C32.6584 24.0914 32.5653 24.0645 32.458 24.0796C32.3426 24.096 32.2181 24.1591 32.212 24.23C32.2039 24.3364 32.4661 24.4468 32.6625 24.4251C32.8325 24.4061 32.9054 24.2944 32.9763 24.3141C33.0613 24.3384 32.9652 24.5 33.0927 24.567C33.1656 24.6051 33.285 24.5986 33.366 24.5756C33.5634 24.5197 33.53 24.3634 33.7143 24.3227C33.7993 24.3036 33.9137 24.3135 33.9602 24.3535C34.02 24.4054 33.9228 24.4678 33.9127 24.6242C33.9076 24.7069 33.9015 24.7904 33.9805 24.8548C34.0686 24.9264 34.186 24.9132 34.2336 24.9835C34.2568 25.0177 34.2447 25.0446 34.2204 25.1208C34.1293 25.3974 34.1597 25.4039 34.104 25.4532C34.019 25.5288 33.9714 25.4906 33.7963 25.5997C33.6616 25.6831 33.6515 25.7298 33.5432 25.7547C33.4581 25.7744 33.3448 25.7731 33.2628 25.737C33.1605 25.6923 33.1474 25.6122 33.119 25.5242C33.119 25.5242 33.0502 25.31 32.8325 25.0413C32.7131 24.8942 32.622 24.7818 32.4367 24.7398C32.2697 24.7024 32.1968 24.7608 32.0612 24.7175C31.8587 24.6537 31.9407 24.4994 31.7534 24.3588C31.5236 24.1854 31.2493 24.3043 30.9335 24.1151C30.9092 24.1006 30.6207 23.9226 30.6743 23.7387C30.7027 23.6408 30.7998 23.6381 30.8515 23.5173C30.9244 23.3478 30.8029 23.196 30.7766 23.1625C30.7219 23.0936 30.6298 22.9779 30.4415 22.9497C30.3463 22.9352 30.2046 22.9405 30.1064 22.9937C29.8078 23.156 30.1176 23.6493 29.9971 23.6762C29.9374 23.69 29.825 23.5744 29.8098 23.558L29.8129 23.5514Z" fill="#007113" stroke="white" stroke-miterlimit="10"/>
<path d="M30.676 43.3639C30.8673 43.4486 31.1649 43.2936 31.253 43.3639C31.3664 43.4539 30.8693 43.7009 30.9645 43.9794C31.0161 44.1305 31.1852 44.1246 31.3299 44.3276C31.499 44.5634 31.4858 44.8721 31.3299 44.9162C31.1457 44.968 30.7722 44.6501 30.676 44.568C30.2802 44.2316 30.1678 43.9058 30.016 43.444C29.8418 42.9139 29.934 42.8153 30.016 42.7753C30.1212 42.724 30.3055 42.7214 30.4209 42.7753C30.6881 42.9001 30.431 43.2555 30.676 43.3639Z" fill="#007113" stroke="white" stroke-miterlimit="10"/>
<path d="M32.5275 45.6206C32.4293 45.5706 32.1924 45.633 32.078 45.7355C32.0102 45.796 31.9333 45.9168 32.0234 45.9832C32.1064 46.0436 32.2856 46.0265 32.3919 45.9832C32.5943 45.9004 32.6419 45.6784 32.5285 45.6206H32.5275Z" fill="#007113" stroke="white" stroke-miterlimit="10"/>
<path d="M32.2285 47.5931C32.3925 47.4696 32.6304 47.5275 32.7195 47.4072C32.7964 47.3041 32.6921 47.1642 32.5889 47.0886C32.3803 46.9356 32.0443 46.95 31.9147 46.9559C31.8641 46.9579 31.2992 46.9881 31.1241 47.2299C31.0158 47.3796 31.1777 47.4421 31.1241 47.7344C31.0876 47.9334 31.0067 47.9341 30.9469 48.1679C30.9166 48.2855 30.873 48.4662 30.9469 48.6725C31.036 48.9227 31.2911 49.1881 31.4531 49.1678C31.615 49.1474 31.5644 48.8564 31.8226 48.796C31.9673 48.7625 32.0513 48.838 32.2143 48.796C32.3652 48.7565 32.4755 48.6442 32.4866 48.5398C32.5018 48.4018 32.3368 48.3683 32.2143 48.1771C32.1131 48.0195 32.0321 47.741 32.2275 47.5931H32.2285Z" fill="#007113" stroke="white" stroke-miterlimit="10"/>
<path d="M48.6376 46.7292C48.5019 46.7811 48.1608 46.6595 48.1031 46.4815C48.0687 46.3744 48.1314 46.2345 48.256 46.2089C48.4088 46.1774 48.6244 46.3245 48.6892 46.469C48.7247 46.5492 48.7408 46.6898 48.6386 46.7292H48.6376Z" fill="#007113" stroke="white" stroke-miterlimit="10"/>
<path d="M49.4133 46.0342C49.2898 46.0545 49.1309 45.9613 49.0691 45.8686C48.9831 45.7399 49.0873 45.6164 49.1329 45.5632C49.1754 45.5126 49.2362 45.441 49.3242 45.439C49.4396 45.4364 49.5317 45.5573 49.5662 45.6289C49.6411 45.7859 49.5773 46.0066 49.4133 46.0335V46.0342Z" fill="#007113" stroke="white" stroke-miterlimit="10"/>
<path d="M49.5077 44.004C49.6038 43.8937 48.96 43.5659 48.6432 43.4227C48.221 43.2315 48.1269 43.2545 48.0935 43.2696C47.9892 43.3162 48.0327 43.4798 48.0935 43.5757C48.2119 43.7636 48.4883 43.8398 48.5652 43.8615C48.6209 43.8772 49.0997 44.0099 49.3184 43.8615C49.4985 43.7386 49.4064 43.4864 49.2414 43.3412C49.0491 43.1724 48.711 43.106 48.4053 43.0456C48.1066 42.9865 47.9396 42.9884 47.811 42.882C47.7108 42.7992 47.6622 42.6738 47.7321 42.6271C47.806 42.5779 47.9426 42.66 48.1562 42.6271C48.3627 42.5956 48.4913 42.4806 48.5571 42.4228C48.7454 42.2553 48.7059 42.1239 48.8638 42.0858C48.9711 42.0602 49.0187 42.1147 49.1311 42.0858C49.3022 42.0425 49.2708 41.8986 49.4165 41.8612C49.5431 41.829 49.7253 41.8966 49.8225 41.9735C49.9844 42.1003 49.8599 42.208 49.9956 42.3814C50.0796 42.4885 50.2557 42.612 50.4673 42.6363C50.6485 42.6574 50.7528 42.5936 51.2225 42.4018C51.9412 42.1082 52.1366 42.0773 52.2763 42.0648C52.58 42.0385 52.5709 42.1049 52.8108 42.0648C53.2279 41.9945 53.2876 41.7876 53.7067 41.7383C53.9456 41.7107 53.9446 41.7758 54.147 41.7383C54.2928 41.7114 54.3485 41.6674 54.886 41.3402C55.0075 41.2667 55.133 41.1918 55.3264 41.1668C55.3932 41.1583 55.4741 41.1478 55.5622 41.1668C55.8264 41.2246 55.876 41.49 55.9398 41.4828C56.0208 41.4736 55.8791 41.0479 56.0815 40.9829C56.2364 40.9329 56.5391 41.111 56.616 41.1563C56.863 41.3015 56.8812 41.4112 57.0716 41.4421C57.2477 41.4703 57.2973 41.3869 57.4491 41.4112C57.7387 41.4578 57.6597 41.7777 58.0312 41.9315C58.1922 41.9985 58.2124 41.94 58.5971 42.0438C58.8431 42.1101 58.9807 42.1732 59.084 42.2579C59.1609 42.321 59.251 42.4228 59.2095 42.4517C59.1609 42.4852 58.9828 42.3867 58.6437 42.3703C58.4513 42.3611 58.4078 42.3874 58.3916 42.4012C58.3207 42.4603 58.4159 42.5785 58.4392 42.6055C58.5677 42.7546 58.7783 42.7736 58.7692 42.84C58.7631 42.8794 58.6852 42.8925 58.5171 42.9523C58.4493 42.9766 58.2033 43.0646 58.0302 43.177C57.9027 43.2597 57.769 43.3451 57.763 43.4726C57.7569 43.5981 57.8743 43.7301 58.0616 43.7886C58.181 43.826 58.3956 43.8543 58.4857 43.7886C58.6204 43.6907 58.3471 43.4811 58.4695 43.3905C58.588 43.3031 58.8694 43.4765 59.2186 43.3905C59.4707 43.3287 59.498 43.1954 59.7582 43.1763C59.9394 43.1632 60.0022 43.2216 60.1044 43.1868C60.2805 43.1264 60.3443 42.8669 60.1834 42.7276C60.0416 42.6048 59.7987 42.6376 59.743 42.5233C59.7116 42.4576 59.7541 42.3709 59.8372 42.3394C59.9566 42.2947 60.0801 42.3966 60.1985 42.3598C60.3403 42.3158 60.3909 42.1003 60.2755 41.9518C60.1925 41.8454 60.0457 41.8007 60.073 41.758C60.0983 41.7173 60.237 41.7521 60.3271 41.7068C60.5225 41.6089 60.2745 41.2456 60.3393 41.2272C60.3949 41.2115 60.6521 41.4565 60.9375 41.8395C61.3303 42.3663 61.2412 42.4366 61.5034 42.5943C61.6684 42.6941 61.8769 42.771 62.0541 42.972C62.1239 43.0515 62.2059 43.1474 62.1482 43.217C62.1057 43.2689 62.0085 43.2781 61.551 43.3294C61.1916 43.3701 61.142 43.3767 61.0954 43.4108C60.9406 43.5245 61.0671 43.7511 61.1116 43.8293C61.2119 44.0086 61.3505 44.0986 61.5358 44.2477C61.8132 44.4704 61.6846 44.4146 62.2434 44.9316C62.6139 45.2739 62.7991 45.4453 62.8568 45.4827C62.9965 45.5734 63.1889 45.6798 63.281 45.8703C63.3012 45.9111 63.3762 46.0648 63.281 46.1154C63.1889 46.164 62.9763 46.0957 62.7941 46.0365C62.5329 45.9524 62.4853 45.8946 62.4165 45.9111C62.2707 45.9472 62.294 46.2625 62.3851 46.5128C62.4853 46.7894 62.5977 46.792 62.6999 47.0534C62.7364 47.148 62.8396 47.4259 62.7313 47.7471C62.6544 47.9751 62.5613 47.9567 62.3851 48.3081C62.2829 48.5138 62.212 48.655 62.1968 48.8488C62.1705 49.1753 62.3315 49.2666 62.1968 49.3999C62.0511 49.5445 61.7059 49.5924 61.474 49.5839C61.2098 49.574 61.1491 49.4926 60.9547 49.5228C60.7108 49.5609 60.7047 49.7054 60.483 49.7369C60.238 49.7718 60.1489 49.6102 59.9009 49.6148C59.5223 49.622 59.493 50.0043 59.0202 50.1048C58.8562 50.1396 58.5647 50.0838 57.9826 49.9721C57.4066 49.8618 57.4491 49.8407 57.0554 49.7783C56.5948 49.7054 56.4794 49.7245 56.1119 49.6358C55.87 49.5773 55.7029 49.5366 55.5136 49.442C55.1765 49.2738 55.0945 49.0958 54.9488 49.1155C54.8779 49.1247 54.8131 49.2068 54.6815 49.3704C54.557 49.5254 54.5479 49.5694 54.4932 49.5747C54.3799 49.5852 54.3353 49.4091 54.0377 49.2482C53.9152 49.1818 53.7704 49.1043 53.5973 49.1155C53.4242 49.1267 53.3949 49.2154 53.1884 49.2377C53.0487 49.2528 52.8482 49.2364 52.7956 49.1661C52.7298 49.0787 52.8918 48.9073 53.1104 48.8396C53.3706 48.7588 53.5589 48.8731 53.7704 48.7785C53.9182 48.7122 53.9597 48.5978 53.9749 48.5538C54.0104 48.4533 53.977 48.383 53.7553 48.0336C53.5548 47.7176 53.4961 47.6394 53.3625 47.6151C53.2491 47.5947 53.1408 47.6236 53.0952 47.6355C52.8209 47.7084 52.8017 47.8917 52.6549 47.8904C52.582 47.8904 52.5111 47.8253 52.3714 47.6966C52.1862 47.5244 52.1609 47.4522 52.088 47.4515C51.9888 47.4502 51.8643 47.5823 51.8521 47.7169C51.8481 47.7596 51.8511 47.8569 52.1983 48.2372C52.3421 48.3942 52.3968 48.4382 52.3714 48.5026C52.331 48.6077 52.1103 48.6839 51.9159 48.676C51.8208 48.6721 51.6507 48.6452 51.6173 48.5742C51.5829 48.4993 51.7357 48.4566 51.7904 48.3397C51.8663 48.1768 51.6416 48.1019 51.5707 47.8601C51.4837 47.5665 51.7398 47.4253 51.5869 47.309C51.4665 47.2177 51.2974 47.2978 50.9583 47.2072C50.8894 47.1888 50.5564 47.0948 50.4076 46.901C50.3033 46.7651 50.3803 46.6974 50.4238 46.3295C50.4754 45.8841 50.3722 45.9071 50.44 45.5445C50.4886 45.2817 50.5584 45.1865 50.4562 45.1155C50.3307 45.0282 50.1353 45.1057 49.6858 45.0544C49.4662 45.0295 49.1068 44.9881 49.042 44.8501C48.9954 44.7496 49.1159 44.6215 49.2455 44.5545C49.4601 44.4429 49.6949 44.4987 49.7486 44.412C49.7871 44.3489 49.7071 44.2517 49.6028 44.2182C49.5097 44.188 49.455 44.2274 49.3224 44.2077C49.1625 44.1847 49.0218 44.0953 49.042 44.0546C49.0734 43.9942 49.4459 44.0802 49.5127 44.0034L49.5077 44.004Z" fill="#007113" stroke="white" stroke-miterlimit="10"/>
<path d="M53.8626 49.972C53.7452 50.0088 53.5023 49.9201 53.4557 49.7894C53.4152 49.6745 53.5266 49.5345 53.6592 49.5253C53.7594 49.5188 53.8424 49.5891 53.8626 49.6068C54.0013 49.7244 53.9942 49.9313 53.8626 49.972Z" fill="#007113" stroke="white" stroke-miterlimit="10"/>
<path d="M55.2246 50.1659C55.1284 50.1896 54.9431 50.095 54.9118 49.9813C54.9087 49.9689 54.8804 49.8598 54.9897 49.8105C55.0606 49.779 55.1608 49.7836 55.2246 49.8105C55.3916 49.8821 55.3501 50.1344 55.2246 50.1659Z" fill="#007113" stroke="white" stroke-miterlimit="10"/>
<path d="M57.5397 50.8667C57.4536 50.8043 57.3312 50.8634 57.1176 50.8056C56.9465 50.7596 56.9171 50.6932 56.8199 50.7037C56.7187 50.7149 56.6256 50.8023 56.6479 50.866C56.66 50.8995 56.7015 50.9232 57.0234 50.998C57.4577 51.0992 57.5103 51.0861 57.5397 51.069C57.6136 51.027 57.6136 50.9192 57.5397 50.866V50.8667Z" fill="#007113" stroke="white" stroke-miterlimit="10"/>
<path d="M58.211 50.5305C58.0683 50.5634 57.8759 50.4786 57.883 50.4188C57.8891 50.3702 58.0288 50.3255 58.1482 50.3374C58.2231 50.3446 58.3325 50.3794 58.3355 50.4339C58.3385 50.4786 58.2697 50.5167 58.21 50.5305H58.211Z" fill="#007113" stroke="white" stroke-miterlimit="10"/>
<path d="M59.9634 51.8199C59.8592 51.8166 59.7539 51.9066 59.7448 51.9927C59.7347 52.0899 59.847 52.199 59.9634 52.1957C60.0596 52.193 60.1325 52.1155 60.1507 52.0538C60.1821 51.9513 60.0829 51.8239 59.9634 51.8206V51.8199Z" fill="#007113" stroke="white" stroke-miterlimit="10"/>
<path d="M54.458 50.8257C54.37 50.8434 54.3487 51.0753 54.458 51.2928C54.6271 51.6278 54.951 51.6146 55.1201 51.9628C55.1859 52.0975 55.1919 52.2124 55.3347 52.2571C55.4703 52.2998 55.5594 52.2249 55.7406 52.2571C56.0068 52.3051 56.1374 52.5258 56.1627 52.5718C56.2508 52.7334 56.1658 52.8004 56.2721 52.8766C56.3986 52.9666 56.5555 52.8996 56.7721 52.9679C57.1254 53.0789 57.1113 53.3811 57.2884 53.3844C57.4585 53.387 57.4565 53.1085 57.7581 53.0191C58.1084 52.9147 58.4748 53.184 58.6813 53.0802C58.8696 52.9856 58.7208 52.6841 58.6813 52.6033C58.6439 52.5264 58.5214 52.2775 58.1964 52.1973C58.159 52.1881 57.9748 52.1428 57.8847 52.1973C57.8017 52.2473 57.833 52.3602 57.8847 52.4305C57.9697 52.5455 58.1286 52.5718 58.1114 52.6132C58.0932 52.6559 57.911 52.6605 57.8057 52.6539C57.7105 52.648 57.5557 52.6381 57.4615 52.5626C57.3299 52.4568 57.3947 52.2873 57.4615 52.1973C57.5283 52.108 57.5931 52.1014 57.5951 52.0449C57.5992 51.9181 57.2753 51.771 57.1204 51.8216C57.0313 51.8505 57.01 51.9392 56.9928 52.0094C56.9564 52.1559 57.0283 52.2354 56.9776 52.2584C56.9139 52.2873 56.7266 52.196 56.592 52.106C56.3348 51.9332 56.3713 51.8281 56.1324 51.6495C55.9795 51.5352 55.8216 51.4714 55.7102 51.4261C55.3671 51.2875 55.2557 51.3302 55.0067 51.2231C54.62 51.0563 54.5532 50.8086 54.459 50.827L54.458 50.8257Z" fill="#007113" stroke="white" stroke-miterlimit="10"/>
<path d="M59.8158 51.3101C59.6751 51.3568 59.6984 51.4534 59.5678 51.4777C59.4463 51.5 59.2762 51.4435 59.2054 51.3601C59.095 51.23 59.3015 51.1249 59.2054 50.9883C59.1436 50.9009 59.0434 50.9206 58.7751 50.7715C58.6213 50.6861 58.4694 50.602 58.4988 50.5389C58.5241 50.4837 58.6709 50.4857 58.9574 50.4378C59.2428 50.3898 59.4382 50.3576 59.6164 50.2762C59.9241 50.1349 59.8958 49.9773 60.159 49.9352C60.1701 49.9333 60.3877 49.9011 60.5335 49.9792C60.5568 49.9917 60.5831 50.0095 60.6864 50.1697C60.7684 50.2972 60.8099 50.3616 60.8008 50.3937C60.7734 50.4956 60.6145 50.5061 60.6003 50.6105C60.5953 50.6519 60.6115 50.715 60.6762 50.7472C60.8038 50.8096 60.9941 50.6926 61.1055 50.7472C61.1966 50.7912 61.2026 50.9311 61.1055 50.9948C60.987 51.0717 60.8089 50.9764 60.6277 51.0507C60.4404 51.1269 60.5193 51.2747 60.3503 51.3292C60.1721 51.387 60.0071 51.2477 59.8158 51.3108V51.3101Z" fill="#007113" stroke="white" stroke-miterlimit="10"/>
<path d="M64.3487 48.2239C64.129 48.2719 64.0318 48.4315 63.964 48.534C63.6461 49.0109 63.4933 48.9334 63.3799 49.2224C63.2412 49.5798 63.4933 49.6521 63.3263 49.9273C63.2179 50.1066 63.0884 50.1139 62.5974 50.4377C62.4931 50.5067 62.231 50.7097 61.7086 51.1163C60.3724 52.1549 60.9757 51.7548 60.9393 51.7792C60.8684 51.8265 60.6923 51.9401 60.7398 52.0084C60.7813 52.0675 60.9463 52.0281 61.1245 52.1043C61.2855 52.1733 61.3756 52.3007 61.3766 52.4164C61.3766 52.4341 61.3776 52.5977 61.2308 52.6489C61.1255 52.685 61.0567 52.6259 60.8856 52.6489C60.7722 52.664 60.6285 52.7139 60.5667 52.7954C60.4706 52.9235 60.6528 53.0325 60.5667 53.1055C60.4503 53.2033 60.0505 53.0641 59.9482 53.1574C59.8723 53.227 60.0211 53.3709 60.0353 53.3847C60.2256 53.5653 60.4716 53.5108 60.6457 53.6481C60.7743 53.7499 60.7581 53.9194 60.7257 54.259C60.6983 54.5408 60.6346 54.661 60.7651 54.7583C60.8492 54.8207 60.9868 54.8555 61.1103 54.8443C61.1923 54.8371 61.3533 54.8016 61.5477 54.5343C61.7177 54.3011 61.7167 54.1611 61.826 53.742C61.905 53.4412 61.985 53.2079 62.0386 53.0536C62.0761 52.9465 62.1469 52.7461 62.2512 52.4939C62.3474 52.2594 62.4 52.1332 62.4901 51.9605C62.5964 51.7568 62.6905 51.5755 62.8748 51.3495C63.0276 51.1617 63.1289 51.0375 63.3252 50.893C63.5753 50.7084 63.7302 50.6755 63.883 50.489C63.9407 50.4187 63.9741 50.3359 64.042 50.171C64.1523 49.903 64.1462 49.8334 64.2545 49.5272C64.3325 49.3078 64.371 49.1981 64.4398 49.0687C64.5552 48.8519 64.6291 48.7922 64.6655 48.6214C64.6827 48.5379 64.7354 48.2883 64.5592 48.2252C64.4793 48.1963 64.3821 48.2173 64.3467 48.2252L64.3487 48.2239Z" fill="#007113" stroke="white" stroke-miterlimit="10"/>
<path d="M67.3875 48.0274C67.2802 48.0142 67.178 48.0556 67.1233 48.1029C67.0352 48.1791 67.0636 48.2803 67.1233 48.3433C67.1304 48.3512 67.2377 48.4596 67.3875 48.4465C67.5282 48.434 67.6092 48.3236 67.6092 48.2369C67.6092 48.1542 67.5333 48.0451 67.3875 48.028V48.0274Z" fill="#007113" stroke="white" stroke-miterlimit="10"/>
<path d="M68.0645 47.7881C67.9612 47.7737 68.026 47.6154 67.8529 47.486C67.7254 47.3907 67.6089 47.417 67.5361 47.3283C67.4541 47.2285 67.4996 47.0747 67.61 47.0471C67.7031 47.0235 67.8235 47.0951 67.9055 47.1431C68.0493 47.2271 68.11 47.3204 68.1698 47.415C68.2507 47.5425 68.2963 47.6173 68.2437 47.6922C68.2102 47.7408 68.1293 47.7973 68.0635 47.7881H68.0645Z" fill="#007113" stroke="white" stroke-miterlimit="10"/>
<path d="M69.533 47.7175C69.4541 47.7753 69.1372 47.7083 68.9307 47.5802C68.788 47.4916 68.5967 47.3103 68.6878 47.1684C68.7444 47.0797 68.9024 47.0212 69.0046 46.9831C69.1585 46.926 69.2577 46.9214 69.2587 46.8938C69.2597 46.8432 68.9165 46.8609 68.7303 46.7223C68.5875 46.6165 68.6867 46.5305 68.5926 46.3584C68.4418 46.0818 68.0895 46.1304 67.9265 45.8782C67.7666 45.6312 68.0257 45.463 67.8 45.2745C67.7068 45.1963 67.5388 45.1221 67.4295 45.151C67.2533 45.1976 67.3819 45.4768 67.1865 45.5445C67.0478 45.5924 66.8059 45.5123 66.6895 45.398C66.5721 45.2823 66.567 45.1155 66.6895 45.0275C66.8322 44.9256 67.0306 45.0117 67.4295 44.9381C67.5783 44.9105 67.9265 44.8468 68.0692 44.6708C68.1249 44.6024 68.1371 44.5308 67.9903 44.0736C67.9235 43.8667 67.9032 43.8266 67.7898 43.5113C67.6512 43.1277 67.6157 43.0068 67.4517 42.8524C67.3748 42.7808 67.2058 42.6218 67.0397 42.6396C66.8393 42.6612 66.816 42.922 66.6804 42.9207C66.5609 42.9194 66.3939 42.7145 66.4901 42.5982C66.5882 42.4799 66.8757 42.5542 67.2513 42.3853C67.3485 42.3413 67.4578 42.2914 67.5155 42.2001C67.5732 42.1094 67.5509 42.0234 67.473 41.8434C67.3465 41.553 67.2837 41.4078 67.1875 41.308C67.0934 41.2101 66.8909 41.0328 66.5427 40.9033C66.1793 40.7687 65.8179 40.745 65.7075 40.7385C65.3765 40.7194 65.1994 40.7614 64.9149 40.6767C64.8663 40.6623 64.6153 40.588 64.6294 40.5118C64.6426 40.4376 64.9028 40.4021 64.9574 40.3949C65.249 40.3588 65.4008 40.4304 65.9303 40.5046C66.3979 40.5703 66.5133 40.5479 66.5751 40.5046C66.6358 40.4625 66.654 40.3936 66.6277 40.3397C66.5802 40.2412 66.401 40.2287 66.1206 40.1407C65.9596 40.0907 65.6762 40.002 65.4545 39.8385C65.2419 39.6821 65.2662 39.5895 65.0637 39.5232C64.9746 39.4943 64.8592 39.4877 64.6294 39.4752C64.2711 39.4555 64.102 39.4778 64.0696 39.4272C64.0464 39.3911 64.1061 39.3379 64.1547 39.3103C64.261 39.2512 64.3703 39.2847 64.6092 39.2624C64.8562 39.2394 64.8643 39.1921 65 39.2006C65.2014 39.2131 65.2571 39.3215 65.4332 39.3997C65.7794 39.554 66.3251 39.4752 66.6277 39.3793C67.0448 39.2473 67.0721 39.0627 67.4416 39.0364C67.6542 39.0213 67.9073 39.064 67.9275 39.1323C67.9457 39.1894 67.802 39.2709 67.6633 39.3037C67.475 39.3484 67.3566 39.2906 67.2827 39.3379C67.1754 39.4069 67.3141 39.598 67.3252 39.6125C67.4497 39.78 67.7453 39.9462 68.0763 39.9278C68.2079 39.9206 68.4084 39.8805 68.4256 39.8109C68.4499 39.713 68.0804 39.6585 68.0662 39.5021C68.0591 39.4213 68.1482 39.3287 68.2565 39.3103C68.4357 39.2794 68.5238 39.4732 68.7748 39.489C69.041 39.5054 69.0876 39.2965 69.5361 39.2006C69.8337 39.1369 69.9764 39.194 70.0857 39.1047C70.2082 39.0048 70.0787 38.8932 70.2234 38.7684C70.3297 38.6764 70.439 38.7027 70.519 38.6107C70.5939 38.5253 70.5838 38.4084 70.519 38.3223C70.3965 38.1601 70.1181 38.1653 70.107 38.0615C70.0979 37.9873 70.2325 37.9012 70.3712 37.8763C70.6162 37.8316 70.7599 37.9978 70.9634 37.9518C71.1628 37.9071 71.1314 37.7232 71.3228 37.691C71.4959 37.6621 71.5779 37.8027 71.7884 37.7869C72.0213 37.7698 72.167 37.578 72.243 37.4782C72.3108 37.3888 72.3604 37.3238 72.328 37.2515C72.2804 37.1471 72.1114 37.1438 72.0739 37.0459C72.0445 36.9671 72.1387 36.9296 72.2004 36.8055C72.2612 36.684 72.2713 36.5184 72.1792 36.4074C72.0607 36.2655 71.7884 36.2294 71.4493 36.188C70.8814 36.1184 70.7731 36.213 70.2548 36.14C69.939 36.0954 69.699 36.0205 69.5037 35.9272C69.4004 35.8779 69.038 35.7038 69.1018 35.5771C69.1575 35.4674 69.5016 35.4542 69.5249 35.4536C69.7841 35.4457 69.8721 35.5238 70.3176 35.6454C70.6385 35.7327 70.8682 35.7945 71.174 35.7965C71.4341 35.7984 71.4392 35.7551 71.6184 35.7761C71.9787 35.8175 72.0223 35.9988 72.3371 36.0435C72.5962 36.0803 72.6479 35.9686 73.0032 35.9476C73.5336 35.9154 73.6237 36.1512 74.0712 36.1262C74.5226 36.1006 74.5652 35.8536 75.1705 35.8037C75.3122 35.7919 75.5815 35.7722 75.6989 35.872C75.8143 35.9705 75.7212 36.1315 75.6989 36.167C75.5724 36.3686 75.3082 36.366 75.2869 36.4961C75.2637 36.6413 75.5835 36.6932 75.5937 36.8942C75.5977 36.975 75.5532 37.0939 75.4347 37.1274C75.293 37.1675 75.1432 37.0551 74.6522 36.8738C74.2159 36.7122 74.142 36.7299 74.1127 36.7437C73.9952 36.797 74.0681 37.0032 74.144 37.128C74.1734 37.1747 74.2645 37.3113 74.7464 37.6155C75.0673 37.8178 75.1766 37.8513 75.2221 37.9722C75.2626 38.0773 75.2485 38.2336 75.0956 38.3151C74.9033 38.4176 74.5965 38.3453 74.5247 38.3289C74.2007 38.2527 74.0853 38.0852 73.975 38.116C73.8839 38.1417 73.9659 38.2553 73.8272 38.3906C73.7229 38.4925 73.6156 38.4872 73.5731 38.5759C73.5367 38.6521 73.5711 38.746 73.6581 38.8025C73.6855 38.8203 73.7806 38.8754 74.0914 38.8577C74.4012 38.8393 74.4933 38.7736 74.8952 38.6928C75.1766 38.6363 75.454 38.5811 75.54 38.6514C75.5947 38.6968 75.5562 38.7795 75.4874 38.926C75.4145 39.0811 75.373 39.0725 75.371 39.1316C75.3669 39.2722 75.6018 39.3097 75.868 39.5639C75.9966 39.6867 76.0634 39.7504 76.0897 39.8523C76.1454 40.0651 75.9611 40.2018 76.0897 40.2983C76.1444 40.3397 76.2405 40.362 76.3114 40.3463C76.4086 40.3253 76.4399 40.2372 76.4592 40.1814C76.528 39.9797 76.3762 39.9022 76.4592 39.7833C76.5321 39.6788 76.6778 39.6986 76.7659 39.6046C76.8813 39.4811 76.6778 39.3859 76.6282 39.131C76.5685 38.8249 76.7973 38.6948 76.6282 38.5135C76.6181 38.5023 76.4926 38.3716 76.3326 38.3762C76.1352 38.3814 75.95 38.5884 75.9945 38.767C76.0229 38.88 76.1535 39.0272 76.3225 39.0344C76.5807 39.0456 76.6161 38.7151 77.189 38.3414C77.5312 38.118 77.7084 38.1128 77.7701 37.9505C77.8005 37.8723 77.7823 37.8145 77.5484 37.3744C77.3652 37.0302 77.3237 36.9664 77.3156 36.839C77.3095 36.7391 77.2913 36.4646 77.516 36.3864C77.6861 36.3273 77.9057 36.4107 78.2246 36.5302C78.4919 36.6308 78.6933 36.707 78.7429 36.8456C78.7682 36.9172 78.7318 36.9986 78.6579 37.1609C78.5617 37.3724 78.4858 37.4164 78.5202 37.5038C78.5567 37.5951 78.668 37.6181 78.8269 37.7094C79.0952 37.8638 79.2076 38.0457 79.2926 38.183C79.409 38.3722 79.4201 38.5174 79.4404 38.7868C79.4647 39.1067 79.4738 39.2696 79.324 39.4108C79.2946 39.4384 79.1296 39.5895 78.8381 39.644C78.5131 39.7045 78.3005 39.5954 78.1619 39.6854C78.0637 39.7485 78.1548 39.8129 78.0454 39.9666C77.9543 40.0953 77.8642 40.0874 77.7914 40.207C77.7782 40.2293 77.6608 40.4212 77.8126 40.5296C77.8885 40.5834 78.0394 40.6228 78.1619 40.5913C78.421 40.5243 78.3016 40.2004 78.6063 40.0973C78.6923 40.0684 78.83 40.0507 78.913 40.0907C79.0577 40.1597 78.8978 40.3351 79.0507 40.4612C79.162 40.5539 79.3989 40.5834 79.569 40.5433C79.7896 40.4921 79.8666 40.3325 79.9395 40.1794C79.9617 40.1334 80.0538 39.9304 80.0032 39.5757C79.9526 39.221 79.8301 39.2124 79.8767 38.9996C79.9172 38.813 80.0285 38.7401 79.9617 38.6015C79.903 38.4813 79.7917 38.4806 79.6864 38.3479C79.6287 38.2744 79.6125 38.2119 79.6125 37.9019C79.6125 37.4611 79.6429 37.4526 79.6024 37.3323C79.5335 37.132 79.4424 37.1445 79.3695 36.9342C79.2916 36.7089 79.3898 36.6728 79.327 36.4337C79.2825 36.2616 79.2288 36.0559 78.9778 35.9397C78.7308 35.8247 78.42 35.8556 78.2692 35.8714C77.8956 35.9088 77.5798 36.0546 77.4867 36.098C77.2761 36.1952 77.2174 36.2583 77.0635 36.2629C76.8894 36.2675 76.688 36.1939 76.6404 36.0914C76.5867 35.9751 76.7457 35.8497 76.9471 35.7144C77.6264 35.2558 78.3279 34.9839 78.4271 34.9458C79.2298 34.639 79.2541 34.6981 79.6742 34.4931C80.2391 34.2172 80.1612 34.1266 80.6683 33.9032C80.8283 33.8323 81.3698 33.6063 82.1483 33.5262C82.5755 33.4821 82.8458 33.4539 83.1738 33.5262C83.6283 33.626 83.6961 33.808 84.178 33.8901C84.5323 33.9505 84.5616 33.8632 84.9817 33.8967C85.0556 33.9026 85.9717 33.9853 86.4303 34.4662C86.5113 34.551 86.6885 34.7369 86.652 34.9668C86.6308 35.1028 86.5518 35.1461 86.2926 35.4404C86.074 35.6881 85.9485 35.8628 85.7531 36.1335C85.5456 36.4212 85.4423 36.567 85.4575 36.6478C85.4757 36.751 85.5395 36.7924 86.1023 37.3133C86.2967 37.4933 86.3453 37.5399 86.3564 37.622C86.3838 37.8309 86.1216 37.9052 86.1347 38.0957C86.1489 38.296 86.4465 38.2928 86.6105 38.5417C86.8211 38.8597 86.4404 39.0259 86.6571 39.3924C86.7715 39.5849 86.9243 39.6204 86.896 39.7564C86.8575 39.9396 86.5356 40.0796 86.4101 40.1334C86.1509 40.2458 86.0386 40.2234 85.9657 40.3121C85.8402 40.4652 86.0902 40.6333 85.9758 40.7168C85.8563 40.8041 85.5537 40.6386 85.3097 40.7233C85.0273 40.8219 85.2206 41.1214 84.9392 41.2791C84.6406 41.4466 84.265 41.1976 83.7022 41.3343C83.2952 41.4328 83.3732 41.5918 82.8033 41.8348C82.2971 42.051 82.1594 41.9583 81.799 42.1574C81.3627 42.3985 81.22 42.7243 81.1643 42.8504C81.1036 42.9884 81.0155 43.1914 81.0904 43.4476C81.215 43.8713 81.6928 44.1111 81.7667 44.1472C82.122 44.32 82.2505 44.2378 82.9936 44.4356C83.5058 44.5722 83.8358 44.6596 84.1142 44.8816C84.2144 44.9618 84.4938 45.1838 84.5262 45.4926C84.5525 45.7428 84.3956 45.8585 84.5363 46.0279C84.6709 46.1896 84.9078 46.1961 84.9169 46.3163C84.925 46.4293 84.7226 46.5403 84.5464 46.5837C84.3217 46.6395 84.2235 46.566 83.9755 46.5903C83.6465 46.6231 83.6252 46.7716 83.278 46.8852C83.1565 46.9246 83.0847 46.9312 82.1787 46.9535C81.4012 46.9733 81.3364 46.9713 81.1957 47.0087C81.1461 47.0219 80.6734 47.15 80.4244 47.4613C80.3667 47.5336 80.3849 47.5356 80.1601 48.0237C80.062 48.2378 79.9931 48.3777 79.9384 48.3738C79.8787 48.3692 79.9162 48.2043 79.7481 48.0171C79.6844 47.9455 79.5902 47.841 79.4525 47.8318C79.247 47.818 78.9919 48.0197 78.9869 48.2161C78.9818 48.4178 79.24 48.5919 79.494 48.6484C79.7623 48.7082 79.8696 48.6017 80.2553 48.6484C80.4081 48.6668 80.6805 48.7003 80.8161 48.8402C80.9993 49.0301 80.8576 49.3368 80.6683 49.3684C80.479 49.4006 80.2978 49.149 80.15 49.1897C80.0417 49.2199 80.0063 49.392 80.1075 49.4984C80.1743 49.5687 80.2452 49.5523 80.3292 49.6154C80.5124 49.7507 80.2938 49.9097 80.4456 50.089C80.5671 50.2329 80.7695 50.2053 80.8475 50.3564C80.892 50.4431 80.8819 50.562 80.7837 50.6099C80.7068 50.648 80.6197 50.6198 80.4244 50.6099C80.313 50.6047 80.068 50.5922 79.8848 50.6441C79.6267 50.717 79.6904 50.8622 79.3989 51.0146C79.323 51.0547 79.079 51.1821 78.8067 51.1585C78.6538 51.1453 78.6073 51.0947 78.0556 50.8018C77.7995 50.6658 77.7175 50.627 77.6112 50.6369C77.4006 50.6566 77.3814 50.8399 77.2093 50.8563C76.9927 50.8773 76.8914 50.5975 76.4794 50.3485C76.2749 50.2243 76.2223 50.2473 75.3274 49.9504C74.6775 49.7349 74.3536 49.6265 74.3759 49.5733C74.4042 49.507 74.881 49.4702 75.296 49.5871C75.784 49.7251 75.9308 50.0049 76.2901 49.978C76.3185 49.976 76.4693 49.9649 76.5118 49.9024C76.5918 49.7855 76.2344 49.5641 76.0047 49.4498C75.5704 49.2337 75.292 49.2528 75.0845 49.0314C75.0409 48.9854 74.9347 48.8717 74.9994 48.8047C75.0814 48.72 75.3487 48.8034 75.7506 48.7088C75.8822 48.678 76.0431 48.6379 76.0887 48.5439C76.1211 48.4776 76.0887 48.3955 76.0148 48.3449C75.9733 48.3166 75.8963 48.2825 75.4803 48.2831C75.1159 48.2838 75.0318 48.3107 74.8942 48.2628C74.7879 48.226 74.6674 48.1504 74.6725 48.071C74.6755 48.0256 74.716 48.0177 74.799 47.9199C74.884 47.82 74.9377 47.7583 74.9043 47.7005C74.8719 47.6433 74.7656 47.6052 74.6715 47.6045C74.5642 47.6039 74.4882 47.6532 74.3647 47.7346C74.1592 47.8713 74.1704 47.9304 74.0479 47.9613C73.9041 47.9974 73.7503 47.9514 73.6673 47.9271C73.4729 47.8693 73.4425 47.797 73.3079 47.728C73.0477 47.5947 72.8675 47.7162 72.409 47.6249C72.2703 47.5973 72.0587 47.5152 71.6376 47.3503C71.3612 47.2426 71.2307 47.1822 71.0353 47.1927C70.849 47.2025 70.6982 47.2715 70.6445 47.2958C70.4127 47.4009 70.4319 47.4922 70.2639 47.5224C70.2052 47.5329 70.0807 47.5178 69.8306 47.4883C69.6251 47.464 69.5624 47.4502 69.5239 47.4745C69.4419 47.527 69.6079 47.661 69.534 47.7149L69.533 47.7175Z" fill="#007113" stroke="white" stroke-miterlimit="10"/>
<path d="M68.1075 37.3384C67.9607 37.383 67.8281 37.2195 67.323 37.0349C66.9393 36.8943 66.7591 36.8949 66.6478 36.7577C66.5506 36.6374 66.5567 36.4739 66.6478 36.445C66.7743 36.4049 66.9241 36.6723 67.4191 36.8293C67.821 36.9567 68.0943 36.8976 68.2037 37.0349C68.2877 37.1393 68.231 37.3009 68.1075 37.3384Z" fill="#007113" stroke="white" stroke-miterlimit="10"/>
<path d="M69.361 38.3574C69.2628 38.3174 69.037 38.3818 69.0026 38.4915C68.9763 38.5769 69.0674 38.6813 69.1818 38.6879C69.3002 38.6944 69.3934 38.5933 69.4156 38.519C69.4288 38.4757 69.4359 38.3877 69.361 38.3568V38.3574Z" fill="#007113" stroke="white" stroke-miterlimit="10"/>
<path d="M60.3941 38.8647C60.5166 38.7708 60.2827 38.621 60.3941 38.4154C60.47 38.2754 60.6016 38.2997 60.7038 38.1671C60.9124 37.8971 60.5024 37.6205 60.7038 37.4687C60.8354 37.3702 61.0511 37.4569 61.214 37.3452C61.4195 37.2047 61.3193 36.9051 61.214 36.8926C61.1057 36.8795 61.0369 37.1745 60.8142 37.185C60.6472 37.1928 60.4305 37.0378 60.4295 36.8913C60.4285 36.7159 60.7352 36.6575 60.7028 36.511C60.6866 36.4387 60.6016 36.4085 60.3273 36.2627C60.0357 36.1076 59.89 36.0301 59.8282 35.9789C59.4557 35.6688 59.976 35.1301 59.8282 35.0795C59.6824 35.0296 58.9404 35.4743 59.0811 35.8251C59.1773 36.0643 59.5944 36.0386 59.8829 36.3691C60.0519 36.5629 60.1967 36.9018 59.974 37.1147C59.7482 37.3295 59.318 37.2526 59.154 37.4812C59.0994 37.5574 59.1388 37.5771 59.154 37.8714C59.1773 38.3247 59.0872 38.3674 59.1905 38.5165C59.3514 38.7491 59.7047 38.8417 59.81 38.8654C59.8697 38.8791 60.2605 38.9678 60.3931 38.8654L60.3941 38.8647Z" fill="#007113" stroke="white" stroke-miterlimit="10"/>
<path d="M56.11 38.5153C55.9379 38.6224 56.0189 38.7367 55.8913 38.8168C55.7121 38.9285 55.3639 38.824 55.3447 38.8641C55.3254 38.9022 55.6109 39.0533 55.9278 39.0296C56.2082 39.0086 56.4673 38.8549 56.4926 38.6867C56.5068 38.5974 56.4592 38.4719 56.3468 38.4502C56.2466 38.4305 56.1332 38.5008 56.11 38.5153Z" fill="#007113" stroke="white" stroke-miterlimit="10"/>
<path d="M58.0606 35.6712C57.9857 35.6607 57.6456 35.6127 57.514 35.7421C57.4482 35.8065 57.4462 35.9044 57.514 35.9668C57.6557 36.0975 58.0545 36.0351 58.2611 35.9668C58.342 35.9399 58.4585 35.9011 58.4615 35.8453C58.4655 35.7631 58.2236 35.6942 58.0606 35.6712Z" fill="#007113" stroke="white" stroke-miterlimit="10"/>
<path d="M87.0142 40.0453C86.9221 40.0295 86.8209 40.243 86.501 40.5452C86.0353 40.9846 85.7873 40.9722 85.6658 41.2395C85.5484 41.5003 85.6446 41.8216 85.9442 42.0449C86.008 42.0922 86.3845 42.3734 86.8998 42.3241C87.3746 42.2788 87.6115 41.9878 87.6783 41.9063C87.735 41.8367 87.8848 41.6534 87.8281 41.434C87.7491 41.1292 87.3634 41.1121 87.1428 40.781C86.8958 40.4112 87.1337 40.0656 87.0142 40.0446V40.0453Z" fill="#007113" stroke="white" stroke-miterlimit="10"/>
<path d="M89.0904 40.1147C88.9284 40.0602 88.6065 40.1554 88.5336 40.2954C88.4486 40.4596 88.7755 40.5522 88.812 40.8511C88.8383 41.0712 88.6794 41.1835 88.7776 41.24C88.8919 41.3057 89.2483 41.2354 89.3677 41.0869C89.4538 40.9805 89.3546 40.9122 89.2604 40.587C89.1663 40.2625 89.2139 40.1568 89.0893 40.1147H89.0904Z" fill="#007113" stroke="white" stroke-miterlimit="10"/>
<path d="M82.5804 50.7562C82.7211 50.6183 82.8871 50.3549 82.7272 50.2314C82.5996 50.1328 82.3648 50.1998 82.2645 50.0947C82.1866 50.0126 82.2352 49.8707 82.3384 49.8425C82.4721 49.805 82.6077 49.9837 82.9478 50.0947C83.0207 50.1184 83.1898 50.167 83.9257 50.163C84.7933 50.1578 84.8064 50.0888 85.1344 50.1427C85.5505 50.211 85.8288 50.3713 86.0485 50.4974C86.2793 50.6301 86.4453 50.728 86.5213 50.9001C86.5425 50.9481 86.6326 51.1524 86.4585 51.3573C86.4332 51.3875 86.251 51.5932 85.9331 51.6234C85.6962 51.6457 85.6001 51.5505 85.2184 51.4526C85.0818 51.4178 84.8084 51.3882 84.2618 51.3297C83.4783 51.2456 83.3528 51.2529 83.211 51.289C82.9711 51.3494 82.8051 51.4618 82.7383 51.5071C82.6735 51.5511 82.5207 51.6562 82.4235 51.8211C82.3172 52.0004 82.4002 52.0385 82.2969 52.1896C82.2605 52.2428 82.1441 52.4143 81.8556 52.4964C81.8333 52.503 81.5033 52.5936 81.2037 52.4964C80.9698 52.4209 80.987 52.3053 80.741 52.2507C80.5517 52.2093 80.4454 52.256 80.3624 52.1962C80.2764 52.1345 80.2895 52.011 80.3624 51.9302C80.4363 51.8487 80.5295 51.8553 80.7299 51.7259C80.8291 51.6615 80.8787 51.6286 80.8666 51.5964C80.8382 51.5202 80.5254 51.5656 80.4151 51.4532C80.3402 51.3777 80.3705 51.2456 80.4778 51.1898C80.6368 51.1077 80.8706 51.2437 81.0346 51.1655C81.1996 51.0873 81.065 50.9021 81.2026 50.8456C81.3849 50.7707 81.6865 51.0683 82.0854 51.023C82.3374 50.994 82.4903 50.8443 82.5794 50.7569L82.5804 50.7562Z" fill="#007113" stroke="white" stroke-miterlimit="10"/>
<path d="M65.2022 53.5491C65.0038 53.6266 65.0099 53.9511 65.2022 54.1817C65.3692 54.3821 65.6426 54.4701 66.1052 54.6146C66.7014 54.8005 66.7743 54.7302 67.3382 54.9142C67.7734 55.0561 67.816 55.1257 68.2664 55.2472C68.7625 55.3812 68.7827 55.3156 69.0054 55.4141C69.462 55.6158 69.3638 55.8831 69.8264 56.0638C70.0805 56.163 70.122 56.0874 70.4166 56.1801C71.0462 56.3791 71.0047 56.7719 71.4177 56.8297C71.7832 56.881 72.1759 56.6228 72.4442 56.4468C72.9503 56.115 72.9028 55.8936 73.2145 55.847C73.5982 55.7898 73.7895 56.1085 74.3949 56.0966C74.7219 56.0901 74.7198 55.9961 75.0367 55.9968C75.6329 55.9981 75.9417 56.3331 76.1664 56.2464C76.3253 56.1853 76.1856 56.0112 76.4235 55.8299C76.5906 55.7025 76.7505 55.7196 76.7829 55.6302C76.8325 55.4949 76.4762 55.4325 76.4235 55.1921C76.3851 55.016 76.5349 54.8623 76.5521 54.8445C76.6614 54.7362 76.7394 54.7539 76.788 54.6803C76.8386 54.6041 76.8052 54.5049 76.3466 54.0477C76.0621 53.7639 76.0196 53.7468 75.9872 53.6483C75.9305 53.4729 76.0125 53.3665 75.885 53.2785C75.7645 53.1957 75.6248 53.245 75.4821 53.1648C75.3201 53.0748 75.3596 52.9336 75.3201 52.7983C75.2068 52.414 74.4597 52.1118 74.242 52.1945C74.0284 52.276 74.407 52.6971 74.0882 52.8981C73.8229 53.0656 73.249 52.9704 73.2156 53.0814C73.2044 53.1182 73.252 53.1779 73.2854 53.2088C73.3127 53.2338 73.3461 53.2555 73.3947 53.2778C73.585 53.3639 73.7359 53.331 73.7794 53.3822C73.828 53.4387 73.7328 53.5793 73.6002 53.5977C73.3451 53.6325 73.2064 53.1825 72.676 53.0978C72.4057 53.0551 72.3642 53.1596 72.0342 53.1477C71.4359 53.1261 70.9926 52.7601 70.7253 52.5394C70.457 52.318 70.5461 52.3134 70.1098 51.8989C69.6442 51.4575 69.4397 51.3642 69.3142 51.3162C69.1815 51.265 68.8212 51.1264 68.3899 51.1645C68.0346 51.196 68.0204 51.3136 67.6105 51.3662C67.1549 51.4253 67.0426 51.2972 66.747 51.3826C66.499 51.4549 66.5769 51.5455 66.1568 51.8188C65.8612 52.0113 65.7175 52.0349 65.6183 52.1945C65.5808 52.2537 65.4755 52.4225 65.5929 52.5394C65.7377 52.6846 66.0768 52.6005 66.2601 52.7647C66.3593 52.8534 66.2742 52.8909 66.3886 53.0144C66.5243 53.1609 66.6802 53.1477 66.7733 53.2778C66.828 53.354 66.8603 53.4782 66.7733 53.5642C66.6245 53.712 66.1912 53.6785 66.0029 53.6641C65.5079 53.626 65.3571 53.4874 65.2022 53.5478V53.5491Z" fill="#007113" stroke="white" stroke-miterlimit="10"/>
<path d="M70.9296 52.1064C70.9387 52.1011 70.9225 52.0834 70.9043 52.0518C70.8273 51.9218 70.8607 51.7983 70.8769 51.7411C70.9063 51.6354 70.9245 51.5697 71.0055 51.527C71.1968 51.4271 71.5177 51.5736 71.6078 51.4974C71.6696 51.4462 71.5886 51.322 71.4691 51.2537C71.2606 51.1348 70.9245 51.1827 70.7291 51.2537C70.6664 51.2767 70.468 51.3489 70.4032 51.4974C70.3374 51.6492 70.4548 51.7812 70.5216 51.8561C70.6633 52.0151 70.9012 52.1221 70.9296 52.1057V52.1064Z" fill="#007113" stroke="white" stroke-miterlimit="10"/>
<path d="M72.1605 52.1837C72.0097 52.1515 71.8113 52.1994 71.7951 52.2605C71.7768 52.3302 71.9864 52.4412 72.1605 52.4142C72.2395 52.4018 72.3387 52.3571 72.3387 52.2986C72.3387 52.2224 72.1686 52.185 72.1605 52.183V52.1837Z" fill="#007113" stroke="white" stroke-miterlimit="10"/>
<path d="M72.6339 50.8059C72.4791 50.8072 72.3363 50.8795 72.2786 50.9662C72.1642 51.1363 72.3576 51.3873 72.6339 51.4017C72.8242 51.4116 73.0206 51.3085 73.0682 51.1823C73.136 51.003 72.8931 50.8046 72.6339 50.8059Z" fill="#007113" stroke="white" stroke-miterlimit="10"/>
<path d="M75.3635 52.0129C75.1702 51.9386 74.9698 52.0536 74.7906 51.9531C74.6478 51.8736 74.6063 51.7081 74.6985 51.6443C74.7693 51.5957 74.8635 51.6437 75.0173 51.6108C75.2988 51.5504 75.2836 51.3264 75.481 51.2981C75.7178 51.2646 75.8879 51.5662 76.1319 51.5359C76.3273 51.5116 76.2969 51.3093 76.5793 51.2233C76.7625 51.1681 77.0217 51.1779 77.1179 51.2607C77.2069 51.3362 77.0885 51.4131 77.1634 51.5734C77.1816 51.6128 77.2444 51.7455 77.4043 51.7967C77.6341 51.8703 77.8113 51.6943 78.1038 51.737C78.3498 51.7731 78.3286 51.913 78.6312 52.0398C78.9329 52.1659 79.0675 52.0746 79.514 52.1718C79.8754 52.2507 80.1031 52.3794 80.3856 52.5397C80.6822 52.7079 80.8826 52.8242 80.9707 53.0239C81 53.0902 81.0557 53.2236 80.9707 53.3589C80.8978 53.4752 80.7662 53.5218 80.5354 53.6269C80.4271 53.6762 80.0353 53.8575 79.7093 54.0736C79.3237 54.3292 79.267 54.4763 79.2508 54.5348C79.2184 54.6471 79.2649 54.6648 79.2275 54.7654C79.1475 54.9848 78.8742 55.0485 78.6889 55.1969C78.4834 55.3612 78.4946 55.599 78.5168 56.0752C78.531 56.3847 78.5948 56.6139 78.5513 57.0429C78.5351 57.1999 78.5077 57.3569 78.368 57.3924C78.2344 57.4265 78.0623 57.3326 77.9672 57.2807C77.8811 57.2334 77.6412 57.0902 77.4975 56.7749C77.3669 56.4871 77.4944 56.4503 77.3487 56.2388C77.1988 56.022 77.0237 56.003 77.0156 55.8519C77.0075 55.708 77.1644 55.6647 77.3142 55.4577C77.5056 55.193 77.4833 54.9414 77.4752 54.8626C77.4651 54.7719 77.4296 54.4382 77.0622 54.1853C76.8182 54.0178 76.6876 54.0644 76.5581 53.9252C76.3343 53.6867 76.6674 53.4982 76.5004 53.2255C76.3313 52.9496 75.9254 53.0357 75.6632 52.7342C75.3919 52.4221 75.6439 52.1193 75.3646 52.0122L75.3635 52.0129Z" fill="#007113" stroke="white" stroke-miterlimit="10"/>
<path d="M40.9408 20.9918C40.791 20.9891 40.6654 21.0752 40.627 21.1573C40.5551 21.3077 40.7434 21.5022 40.9408 21.5015C41.0997 21.5009 41.2546 21.3741 41.2546 21.2466C41.2546 21.1291 41.123 20.995 40.9408 20.9918Z" fill="#007113" stroke="white" stroke-miterlimit="10"/>
<path d="M39.8811 22.3294C40.0087 22.198 40.118 22.1658 40.199 22.1652C40.3195 22.1639 40.3934 22.2309 40.4956 22.2052C40.5614 22.1888 40.612 22.1409 40.611 22.0969C40.609 22.0272 40.4764 21.9812 40.4025 21.9563C40.0289 21.8282 39.6179 21.9339 39.537 21.9563C39.4398 21.9832 39.2657 22.0305 39.2646 22.0969C39.2646 22.1284 39.3041 22.1389 39.5116 22.2493C39.6848 22.3412 39.7556 22.3859 39.8204 22.3695C39.8518 22.3616 39.869 22.3432 39.8801 22.3294H39.8811Z" fill="#007113" stroke="white" stroke-miterlimit="10"/>
<path d="M36.4483 24.2499C36.4544 24.2308 36.5415 23.9372 36.6761 23.7914C36.834 23.6206 37.0183 23.6935 37.1772 23.5253C37.3341 23.3598 37.1833 23.2619 37.3371 23.1259C37.5112 22.9728 37.7572 23.0517 37.9293 22.9039C38.1055 22.7534 38.0356 22.5137 37.9293 22.3731C37.8291 22.2397 37.742 22.2555 37.6327 22.134C37.3979 21.8719 37.4849 21.4449 37.7927 21.3516C37.9516 21.303 38.1753 21.3417 38.2259 21.3516C38.4243 21.3897 38.4841 21.4593 38.5448 21.4403C38.6541 21.4061 38.4608 21.1762 38.5448 20.8786C38.6015 20.6776 38.722 20.6704 38.8181 20.4201C38.9042 20.1961 38.9062 19.9484 38.8181 19.932C38.7169 19.9129 38.644 20.2282 38.2259 20.3609C37.9779 20.4398 37.8595 20.3741 37.6682 20.4647C37.4161 20.5843 37.5355 20.7393 37.3371 20.8937C37.1549 21.0343 36.9332 20.9988 35.8329 21.1302C35.3237 21.1913 35.1415 21.2261 35.0807 21.3227C35.0129 21.4304 35.1496 21.5309 35.0807 21.7516C35.0584 21.8232 35.0382 21.8856 34.9613 21.9441C34.8975 21.9921 34.8408 22.0026 34.8378 22.0381C34.8327 22.09 34.9471 22.1366 35.0372 22.1734C35.1728 22.2286 35.2315 22.2233 35.2791 22.2726C35.2822 22.2765 35.3358 22.3324 35.3085 22.3882C35.271 22.4664 35.104 22.4953 35.0281 22.5097C34.7892 22.5537 34.3792 22.6431 34.1534 22.7291C33.8295 22.852 33.6767 23.0471 33.5876 23.1607C33.4307 23.3598 33.3537 23.5976 33.4185 23.6186C33.4479 23.6278 33.4793 23.5851 33.5876 23.5476C33.7455 23.4931 33.95 23.4918 34.0937 23.5345C34.201 23.566 34.2618 23.6179 34.3913 23.7664C34.7153 24.1376 34.6525 24.1763 34.7892 24.2505C34.936 24.3307 34.9694 24.265 35.7326 24.3465C36.0485 24.38 36.2914 24.4174 36.3977 24.3333C36.4301 24.3077 36.4362 24.2827 36.4453 24.2505L36.4483 24.2499Z" fill="#007113" stroke="white" stroke-miterlimit="10"/>
<path d="M34.0091 23.7633C33.8937 23.7922 33.8704 23.8822 33.8674 23.8941C33.8471 23.9729 33.9008 24.0859 34.0466 24.1115C34.1478 24.1299 34.2632 24.0997 34.3219 24.0438C34.4039 23.9663 34.3533 23.8651 34.2693 23.8119C34.2612 23.8067 34.1387 23.7311 34.0081 23.7633H34.0091Z" fill="#007113" stroke="white" stroke-miterlimit="10"/>
<path d="M34.6875 24.8741C34.6875 24.8406 34.6582 24.8025 34.6126 24.7874C34.5397 24.7631 34.4608 24.8117 34.4193 24.7874C34.3828 24.7657 34.4122 24.7092 34.4193 24.6954C34.4405 24.6547 34.48 24.6304 34.5013 24.6179C34.5286 24.6021 34.6217 24.5463 34.7402 24.5548C34.809 24.5601 34.8505 24.5837 34.9335 24.6324C34.9699 24.6534 35.0398 24.6974 35.0975 24.7677C35.142 24.8215 35.1633 24.8485 35.1501 24.8741C35.1238 24.9214 35.0175 24.901 34.9112 24.9562C34.7908 25.0193 34.8262 25.0988 34.7321 25.1204C34.644 25.1408 34.5094 25.0948 34.5013 25.0482C34.4901 24.9891 34.6865 24.9602 34.6875 24.8741Z" fill="#007113" stroke="white" stroke-miterlimit="10"/>
<path d="M34.7764 26.2231C34.8199 26.1732 34.905 26.1935 34.987 26.1449C35.0528 26.1062 35.1004 26.0326 35.0639 25.9781C35.0133 25.9012 34.824 25.9006 34.7764 25.8999C34.7116 25.8999 34.6357 25.8999 34.5831 25.9334C34.5011 25.986 34.5112 26.0976 34.5831 26.162C34.6175 26.1929 34.659 26.206 34.6519 26.2231C34.6398 26.2514 34.5233 26.231 34.4717 26.273C34.4201 26.3144 34.4494 26.4031 34.5142 26.4235C34.5608 26.4386 34.5972 26.409 34.6347 26.4235C34.6813 26.4419 34.656 26.4997 34.6691 26.6186C34.6772 26.6935 34.6823 26.7316 34.7207 26.7467C34.7795 26.7703 34.8868 26.7329 34.9434 26.6908C35.0123 26.6402 35.0487 26.5542 34.9951 26.5069C34.9394 26.4576 34.827 26.4885 34.7764 26.4346C34.7602 26.4169 34.7602 26.3873 34.7602 26.3269C34.7602 26.2697 34.7602 26.2408 34.7764 26.2231Z" fill="#007113" stroke="white" stroke-miterlimit="10"/>
<path d="M65.2008 16.1597C65.0327 16.1111 64.9629 16.19 64.6632 16.1597C64.5812 16.1512 64.2431 16.117 64.1702 15.9889C64.1419 15.9397 64.1459 15.8615 64.3838 15.6585C64.6936 15.3944 64.9183 15.2039 65.3212 15.1146C65.8355 15.0003 65.9853 15.1974 66.5876 15.0614C66.7567 15.0233 66.8447 14.9852 67.2456 14.8906C67.6202 14.8026 67.7831 14.7789 67.936 14.8269C67.9532 14.8321 68.1142 14.884 68.1658 14.9977C68.2407 15.1599 68.0271 15.3012 68.018 15.3071C67.8985 15.3839 67.7518 15.3997 67.525 15.4247C67.1747 15.4628 67.0442 15.4207 66.95 15.491C66.8883 15.5363 66.9136 15.5764 66.8842 15.7235C66.8619 15.8352 66.8366 15.9614 66.7526 16.0651C66.6494 16.1926 66.4641 16.257 66.0946 16.3851C65.8527 16.4691 65.7302 16.5105 65.634 16.4915C65.4093 16.4475 65.4559 16.234 65.2008 16.1611V16.1597Z" fill="#007113" stroke="white" stroke-miterlimit="10"/>
<path d="M72.928 24.802C73.0404 24.8302 73.2104 24.8348 73.3005 24.7757C73.3906 24.7166 73.3117 24.6522 73.3896 24.5287C73.4686 24.4039 73.6346 24.3362 73.6811 24.3185C73.834 24.2607 73.8866 24.2948 74.1104 24.2291C74.2521 24.1871 74.3685 24.1529 74.3938 24.082C74.4181 24.0143 74.3533 23.9355 74.2642 23.898C74.1093 23.8337 73.8947 23.8987 73.7945 23.9296C73.4706 24.0281 73.4868 24.1575 73.2114 24.2186C73.0545 24.2534 72.9017 24.2442 72.7417 24.2344C72.4553 24.2173 72.3125 24.1588 72.2396 24.2081C72.1678 24.2567 72.2325 24.3645 72.2396 24.3763C72.3024 24.4781 72.4158 24.4755 72.6203 24.6023C72.8035 24.7159 72.7934 24.7685 72.928 24.802Z" fill="#007113" stroke="white" stroke-miterlimit="10"/>
<defs>
<filter id="filter0_g_721_85" x="0.000390649" y="-9.76324e-05" width="115.8" height="68.8" filterUnits="userSpaceOnUse" color-interpolation-filters="sRGB">
<feFlood flood-opacity="0" result="BackgroundImageFix"/>
<feBlend mode="normal" in="SourceGraphic" in2="BackgroundImageFix" result="shape"/>
<feTurbulence type="fractalNoise" baseFrequency="0.19230769574642181 0.19230769574642181" numOctaves="3" seed="2302" />
<feDisplacementMap in="shape" scale="1.7999999523162842" xChannelSelector="R" yChannelSelector="G" result="displacedImage" width="100%" height="100%" />
<feMerge result="effect1_texture_721_85">
<feMergeNode in="displacedImage"/>
</feMerge>
</filter>
</defs>
</svg>
