<svg width="81" height="118" viewBox="0 0 81 118" fill="none" xmlns="http://www.w3.org/2000/svg">
<g filter="url(#filter0_g_721_92)">
<g clip-path="url(#clip0_721_92)" filter="url(#filter1_g_721_92)">
<path d="M53.4935 114.8C47.9902 114.8 41.4778 111.473 37.2586 105.263C30.7463 97.2793 30.196 81.7545 40.3772 84.8595C45.2385 87.9644 45.4219 98.8317 51.017 100.939C62.7575 106.261 68.3526 82.7525 62.9409 73.9921C59.9141 67.2278 52.7597 62.3486 52.1177 54.4753C52.5763 46.9347 61.932 46.602 63.3995 38.9506C65.8761 31.5209 64.1333 20.4317 57.7127 17.4377C52.9432 14.8872 48.9991 18.103 46.4309 23.6476C43.4957 30.9664 34.7821 41.8337 32.6725 27.9723C34.9655 -20.9306 99.3548 18.103 70.187 50.0397C67.4353 53.9209 66.9767 56.9149 69.7284 60.4634C83.8537 76.4317 76.791 115.022 55.2362 114.578H53.5852L53.4935 114.8Z" fill="#369331"/>
</g>
</g>
<defs>
<filter id="filter0_g_721_92" x="-0.000195265" y="4.88758e-05" width="80.6" height="117.6" filterUnits="userSpaceOnUse" color-interpolation-filters="sRGB">
<feFlood flood-opacity="0" result="BackgroundImageFix"/>
<feBlend mode="normal" in="SourceGraphic" in2="BackgroundImageFix" result="shape"/>
<feTurbulence type="fractalNoise" baseFrequency="1.6666666269302368 1.6666666269302368" numOctaves="3" seed="1782" />
<feDisplacementMap in="shape" scale="5.5999999046325684" xChannelSelector="R" yChannelSelector="G" result="displacedImage" width="100%" height="100%" />
<feMerge result="effect1_texture_721_92">
<feMergeNode in="displacedImage"/>
</feMerge>
</filter>
<filter id="filter1_g_721_92" x="-0.000195265" y="4.88758e-05" width="80.6" height="117.6" filterUnits="userSpaceOnUse" color-interpolation-filters="sRGB">
<feFlood flood-opacity="0" result="BackgroundImageFix"/>
<feBlend mode="normal" in="SourceGraphic" in2="BackgroundImageFix" result="shape"/>
<feTurbulence type="fractalNoise" baseFrequency="1.6666666269302368 1.6666666269302368" numOctaves="3" seed="4478" />
<feDisplacementMap in="shape" scale="5.5999999046325684" xChannelSelector="R" yChannelSelector="G" result="displacedImage" width="100%" height="100%" />
<feMerge result="effect1_texture_721_92">
<feMergeNode in="displacedImage"/>
</feMerge>
</filter>
<clipPath id="clip0_721_92">
<rect width="75" height="112" fill="white" transform="translate(2.7998 2.80005)"/>
</clipPath>
</defs>
</svg>
