<svg width="49" height="117" viewBox="0 0 49 117" fill="none" xmlns="http://www.w3.org/2000/svg">
<g filter="url(#filter0_g_721_91)">
<path d="M2.89153 111.904C3.1667 85.6229 56.0906 26.9615 27.7484 19.8645C24.4463 19.5318 20.7774 20.419 18.6678 23.8566C14.9072 29.4011 16.4665 37.718 10.1376 39.1596C6.46871 40.2685 3.9922 34.3912 5.45976 29.1794C15.7327 -19.7236 60.0347 4.67243 41.0481 59.0091C36.2786 75.421 26.556 85.4011 19.6768 99.7061C21.8781 103.365 31.0504 100.261 34.9944 101.037C40.0392 100.815 46.8266 104.031 44.9005 110.795C40.2226 116.007 32.2428 112.237 22.6119 113.346C13.3479 112.902 7.20249 114.344 3.1667 112.459L2.7998 111.793L2.89153 111.904Z" fill="#369331"/>
</g>
<defs>
<filter id="filter0_g_721_91" x="-0.000195265" y="4.88758e-05" width="48.5238" height="116.439" filterUnits="userSpaceOnUse" color-interpolation-filters="sRGB">
<feFlood flood-opacity="0" result="BackgroundImageFix"/>
<feBlend mode="normal" in="SourceGraphic" in2="BackgroundImageFix" result="shape"/>
<feTurbulence type="fractalNoise" baseFrequency="1.6666666269302368 1.6666666269302368" numOctaves="3" seed="935" />
<feDisplacementMap in="shape" scale="5.5999999046325684" xChannelSelector="R" yChannelSelector="G" result="displacedImage" width="100%" height="100%" />
<feMerge result="effect1_texture_721_91">
<feMergeNode in="displacedImage"/>
</feMerge>
</filter>
</defs>
</svg>
