<svg width="24" height="48" viewBox="0 0 24 48" fill="none" xmlns="http://www.w3.org/2000/svg">
<g filter="url(#filter0_g_592_272)">
<g filter="url(#filter1_g_592_272)">
<path d="M14.9661 44.7999C13.6453 44.7999 12.0824 43.5524 11.0698 41.2237C9.50681 38.2296 9.37473 32.4079 11.8182 33.5722C12.9849 34.7366 13.029 38.8118 14.3718 39.6019C17.1895 41.598 18.5323 32.7821 17.2335 29.497C16.5071 26.9603 14.79 25.1306 14.6359 22.1782C14.746 19.3504 16.9914 19.2257 17.3436 16.3564C17.938 13.5702 17.5197 9.41183 15.9788 8.28906C14.8341 7.33262 13.8875 8.53856 13.2711 10.6178C12.5667 13.3623 10.4754 17.4376 9.96909 12.2396C10.5194 -6.09906 25.9728 8.53856 18.9726 20.5148C18.3122 21.9702 18.2021 23.093 18.8625 24.4237C22.2526 30.4118 20.5575 44.8831 15.3844 44.7168H14.9882L14.9661 44.7999Z" fill="#369331"/>
</g>
</g>
<defs>
<filter id="filter0_g_592_272" x="-0.000195265" y="4.88758e-05" width="23.6" height="47.6" filterUnits="userSpaceOnUse" color-interpolation-filters="sRGB">
<feFlood flood-opacity="0" result="BackgroundImageFix"/>
<feBlend mode="normal" in="SourceGraphic" in2="BackgroundImageFix" result="shape"/>
<feTurbulence type="fractalNoise" baseFrequency="1.6666666269302368 1.6666666269302368" numOctaves="3" seed="1782" />
<feDisplacementMap in="shape" scale="5.5999999046325684" xChannelSelector="R" yChannelSelector="G" result="displacedImage" width="100%" height="100%" />
<feMerge result="effect1_texture_592_272">
<feMergeNode in="displacedImage"/>
</feMerge>
</filter>
<filter id="filter1_g_592_272" x="-0.000195265" y="4.88758e-05" width="23.6" height="47.6" filterUnits="userSpaceOnUse" color-interpolation-filters="sRGB">
<feFlood flood-opacity="0" result="BackgroundImageFix"/>
<feBlend mode="normal" in="SourceGraphic" in2="BackgroundImageFix" result="shape"/>
<feTurbulence type="fractalNoise" baseFrequency="1.6666666269302368 1.6666666269302368" numOctaves="3" seed="4478" />
<feDisplacementMap in="shape" scale="5.5999999046325684" xChannelSelector="R" yChannelSelector="G" result="displacedImage" width="100%" height="100%" />
<feMerge result="effect1_texture_592_272">
<feMergeNode in="displacedImage"/>
</feMerge>
</filter>
</defs>
</svg>
